<svg width="27.000000" height="27.000000" viewBox="0 0 27 27" fill="none" xmlns="http://www.w3.org/2000/svg" xmlns:xlink="http://www.w3.org/1999/xlink">
	<desc>
			Created with Pixso.
	</desc>
	<defs/>
	<path id="Vector" d="M-0.13 -0.71L-0.14 -0.71C-0.26 -0.71 -0.39 -0.68 -0.5 -0.62C-0.61 -0.56 -0.71 -0.48 -0.8 -0.37C-0.88 -0.26 -0.94 -0.13 -0.97 0C-1.01 0.14 -1.01 0.28 -0.99 0.42L2.69 25.59C2.79 26.23 3.28 26.7 3.85 26.7L21.53 26.7C21.74 26.71 21.94 26.62 22.1 26.47C22.26 26.32 22.37 26.11 22.4 25.88L26.09 0.42C26.1 0.28 26.1 0.14 26.06 0.01C26.03 -0.13 25.97 -0.26 25.89 -0.36C25.81 -0.47 25.71 -0.56 25.59 -0.62C25.48 -0.68 25.35 -0.71 25.23 -0.71L25.22 -0.71L-0.13 -0.71ZM15.4 17.48L9.75 17.48L8.22 8.5L16.76 8.5L15.4 17.48L15.4 17.48Z" fill="#FFFFFF" fill-opacity="1.000000" fill-rule="nonzero"/>
</svg>
