<svg width="95.000000" height="42.040039" viewBox="0 0 95 42.04" fill="none" xmlns="http://www.w3.org/2000/svg" xmlns:xlink="http://www.w3.org/1999/xlink">
	<desc>
			Created with Pixso.
	</desc>
	<defs/>
	<path id="Vector" d="M16.4 14.4C15.8 13.27 15.08 12.47 14.16 11.9C13.24 11.34 12.16 11.06 10.92 11.06C9.28 11.06 7.88 11.66 6.76 12.87C5.64 14.08 5.08 15.6 5.08 17.41C5.08 19.23 5.64 20.71 6.8 21.92C7.96 23.13 9.36 23.69 11.12 23.69C12.44 23.69 13.56 23.41 14.44 22.85C15.32 22.28 16 21.4 16.4 20.27L21.6 20.27C20.96 22.89 19.72 24.9 17.88 26.39C16.04 27.87 13.8 28.6 11.12 28.6C9.56 28.6 8.12 28.32 6.8 27.75C5.48 27.19 4.28 26.39 3.2 25.26C2.2 24.21 1.44 23.05 0.88 21.64C0.28 20.31 0 18.9 0 17.5C0 16.01 0.24 14.6 0.76 13.31C1.28 12.02 2.04 10.86 3.04 9.81C4.16 8.64 5.36 7.76 6.76 7.16C8.12 6.55 9.64 6.23 11.2 6.23C13.76 6.23 16 6.95 17.92 8.44C19.8 9.93 21.04 11.9 21.64 14.4L16.4 14.4ZM65.34 8.56L65.34 0L70.18 0L70.18 28.08L65.34 28.08L65.34 26.35C64.38 27.11 63.34 27.67 62.3 28.08C61.22 28.44 60.06 28.64 58.82 28.64C57.5 28.64 56.26 28.44 55.06 28C53.9 27.55 52.82 26.95 51.9 26.14C50.62 25.02 49.66 23.73 48.98 22.2C48.3 20.67 47.94 19.1 47.94 17.41C47.94 15.85 48.26 14.36 48.9 12.91C49.54 11.46 50.42 10.21 51.58 9.17C52.54 8.24 53.62 7.56 54.86 7.08C56.1 6.59 57.42 6.35 58.82 6.35C60.18 6.35 61.38 6.51 62.42 6.87C63.42 7.24 64.42 7.8 65.34 8.56ZM65.14 17.54C65.14 15.73 64.58 14.2 63.42 12.99C62.26 11.78 60.86 11.18 59.14 11.18C57.46 11.18 56.02 11.78 54.82 13.03C53.62 14.28 53.02 15.73 53.02 17.45C53.02 19.23 53.62 20.71 54.82 21.92C56.02 23.13 57.54 23.69 59.38 23.69C60.98 23.69 62.34 23.09 63.46 21.88C64.54 20.75 65.14 19.27 65.14 17.54ZM78.07 19.02C78.23 20.55 78.83 21.76 79.87 22.64C80.91 23.53 82.27 23.97 83.91 23.97C85.03 23.97 85.99 23.73 86.87 23.29C87.75 22.81 88.43 22.16 88.95 21.36L94.23 21.36C93.35 23.65 91.99 25.46 90.23 26.75C88.43 28.04 86.39 28.68 84.03 28.68C82.47 28.68 81.03 28.4 79.71 27.83C78.39 27.27 77.19 26.47 76.15 25.34C75.15 24.29 74.39 23.09 73.83 21.72C73.27 20.35 72.99 18.94 72.99 17.54C72.99 16.05 73.23 14.68 73.75 13.35C74.27 12.06 74.99 10.86 75.99 9.85C77.07 8.72 78.27 7.84 79.63 7.2C80.99 6.59 82.39 6.27 83.83 6.27C85.67 6.27 87.35 6.67 88.95 7.52C90.55 8.36 91.87 9.53 92.99 11.06C93.67 11.98 94.15 12.99 94.51 14.12C94.84 15.24 95 16.53 95 18.02C95 18.14 95 18.3 95 18.54C95 18.78 95 18.94 95 19.06L78.07 19.02ZM89.67 15.12C89.27 13.71 88.55 12.63 87.55 11.9C86.55 11.18 85.31 10.78 83.79 10.78C82.51 10.78 81.31 11.18 80.27 11.98C79.23 12.79 78.55 13.83 78.19 15.12L89.67 15.12Z" fill="#4A4A4F" fill-opacity="1.000000" fill-rule="nonzero"/>
	<path id="Vector" d="M23.77 17.37C23.77 15.89 24.05 14.48 24.57 13.11C25.13 11.78 25.89 10.58 26.93 9.53C27.97 8.44 29.17 7.64 30.53 7.08C31.85 6.51 33.25 6.23 34.69 6.23C36.21 6.23 37.61 6.47 38.89 6.99C40.17 7.52 41.37 8.24 42.45 9.29C43.57 10.37 44.41 11.58 45.01 12.99C45.61 14.4 45.93 15.81 45.93 17.29C45.93 18.9 45.69 20.39 45.13 21.72C44.61 23.05 43.81 24.25 42.77 25.34C41.73 26.43 40.53 27.27 39.17 27.83C37.81 28.4 36.37 28.68 34.81 28.68C33.21 28.68 31.77 28.4 30.49 27.83C29.17 27.27 28.01 26.43 26.93 25.3C25.89 24.17 25.13 22.97 24.61 21.64C24.01 20.23 23.77 18.86 23.77 17.37ZM28.81 17.33C28.81 19.31 29.33 20.87 30.41 22C31.49 23.17 32.97 23.73 34.81 23.73C36.61 23.73 38.05 23.13 39.13 21.96C40.21 20.79 40.73 19.22 40.73 17.21C40.73 15.44 40.17 13.95 39.05 12.83C37.93 11.7 36.49 11.1 34.81 11.1C33.05 11.1 31.61 11.66 30.49 12.83C29.37 13.99 28.81 15.48 28.81 17.33ZM47.9 33.71L47.9 32.66L48.94 32.66L48.94 33.71L47.9 33.71ZM47.94 41.91L47.94 35.52L48.86 35.52L48.86 41.91L47.94 41.91ZM55.54 41.91L55.54 37.97C55.54 36.85 54.94 36.28 53.98 36.28C53.02 36.28 52.42 36.85 52.42 37.97L52.42 41.91L51.5 41.91L51.5 35.52L52.42 35.52L52.42 36.2C52.86 35.68 53.5 35.44 54.22 35.44C54.9 35.44 55.46 35.64 55.86 36.04C56.3 36.48 56.5 37.09 56.5 37.81L56.5 41.91L55.54 41.91ZM60.98 41.99C59.9 41.99 59.06 41.75 58.38 41.07L59.02 40.43C59.54 40.95 60.22 41.15 60.98 41.15C62.02 41.15 62.66 40.79 62.66 40.02C62.66 39.46 62.34 39.14 61.62 39.1L60.58 39.02C59.34 38.9 58.66 38.37 58.66 37.29C58.66 36.12 59.62 35.44 60.98 35.44C61.9 35.44 62.7 35.68 63.26 36.12L62.66 36.72C62.22 36.36 61.62 36.2 60.98 36.2C60.06 36.2 59.54 36.6 59.54 37.25C59.54 37.81 59.86 38.13 60.66 38.17L61.7 38.25C62.82 38.37 63.58 38.78 63.58 39.98C63.58 41.27 62.54 41.99 60.98 41.99ZM67.3 41.91C66.22 41.91 65.66 41.15 65.66 40.18L65.66 36.24L64.86 36.24L64.86 35.52L65.66 35.52L65.66 33.51L66.58 33.51L66.58 35.52L67.94 35.52L67.94 36.24L66.58 36.24L66.58 40.14C66.58 40.71 66.86 41.07 67.46 41.07L67.94 41.07L67.94 41.87L67.3 41.91ZM70.02 33.71L70.02 32.66L71.06 32.66L71.06 33.71L70.02 33.71ZM70.06 41.91L70.06 35.52L70.98 35.52L70.98 41.91L70.06 41.91ZM75.39 41.91C74.31 41.91 73.75 41.15 73.75 40.18L73.75 36.24L72.95 36.24L72.95 35.52L73.75 35.52L73.75 33.51L74.67 33.51L74.67 35.52L76.03 35.52L76.03 36.24L74.67 36.24L74.67 40.14C74.67 40.71 74.95 41.07 75.55 41.07L76.03 41.07L76.03 41.87L75.39 41.91ZM82.15 41.91L82.15 41.19C81.71 41.71 81.07 41.99 80.35 41.99C79.67 41.99 79.11 41.79 78.71 41.39C78.27 40.95 78.07 40.35 78.07 39.58L78.07 35.52L78.99 35.52L78.99 39.46C78.99 40.59 79.59 41.15 80.55 41.15C81.51 41.15 82.15 40.59 82.15 39.46L82.15 35.52L83.07 35.52L83.07 41.91L82.15 41.91ZM87.43 41.91C86.35 41.91 85.79 41.15 85.79 40.18L85.79 36.24L84.99 36.24L84.99 35.52L85.79 35.52L85.79 33.51L86.71 33.51L86.71 35.52L88.07 35.52L88.07 36.24L86.71 36.24L86.71 40.14C86.71 40.71 86.99 41.07 87.59 41.07L88.07 41.07L88.07 41.87L87.43 41.91ZM90.67 38.98C90.67 40.39 91.31 41.19 92.55 41.19C93.27 41.19 93.71 40.95 94.23 40.47L94.88 41.03C94.23 41.67 93.63 42.04 92.55 42.04C90.87 42.04 89.79 41.03 89.79 38.78C89.79 36.72 90.79 35.52 92.39 35.52C94.03 35.52 95 36.72 95 38.62L95 39.06L90.67 38.98ZM93.83 37.21C93.59 36.64 93.03 36.24 92.35 36.24C91.67 36.24 91.11 36.6 90.87 37.21C90.71 37.57 90.71 37.77 90.67 38.25L94.03 38.25C93.99 37.77 93.99 37.57 93.83 37.21Z" fill="#E84610" fill-opacity="1.000000" fill-rule="nonzero"/>
</svg>
