<svg width="94.668579" height="17.851562" viewBox="0 0 94.6686 17.8516" fill="none" xmlns="http://www.w3.org/2000/svg" xmlns:xlink="http://www.w3.org/1999/xlink">
	<desc>
			Created with Pixso.
	</desc>
	<defs/>
	<path id="Vector" d="M7.4 2.79C6.29 2.79 5.97 3.27 5.97 4.33L5.97 6.1L8.94 6.1L8.64 8.94L5.97 8.94L5.97 17.58L2.4 17.58L2.4 8.94L0 8.94L0 6.1L2.4 6.1L2.4 4.38C2.4 1.51 3.59 0 6.9 0C7.6 -0.01 8.29 0.03 8.98 0.12L8.98 2.79L7.4 2.79Z" fill="#4267B2" fill-opacity="1.000000" fill-rule="nonzero"/>
	<path id="Vector" d="M9.19 11.48C9.19 8.27 10.75 5.85 14.02 5.85C15.8 5.85 16.89 6.74 17.41 7.85L17.41 6.1L20.83 6.1L20.83 17.58L17.41 17.58L17.41 15.84C16.91 16.95 15.8 17.82 14.02 17.82C10.75 17.82 9.19 15.41 9.19 12.2L9.19 11.48ZM12.75 12.25C12.75 13.96 13.4 15.09 15.06 15.09C16.52 15.09 17.26 14.06 17.26 12.42L17.26 11.26C17.26 9.62 16.52 8.59 15.06 8.59C13.4 8.59 12.75 9.72 12.75 11.43L12.75 12.25Z" fill="#4267B2" fill-opacity="1.000000" fill-rule="nonzero"/>
	<path id="Vector" d="M28.26 5.85C29.64 5.85 30.96 6.14 31.68 6.63L30.88 9.09C30.14 8.74 29.33 8.56 28.51 8.56C26.57 8.56 25.73 9.64 25.73 11.5L25.73 12.18C25.73 14.03 26.58 15.12 28.51 15.12C29.33 15.11 30.14 14.93 30.88 14.59L31.68 17.05C30.96 17.53 29.65 17.82 28.26 17.82C24.07 17.82 22.16 15.63 22.16 12.1L22.16 11.57C22.16 8.05 24.07 5.85 28.26 5.85Z" fill="#4267B2" fill-opacity="1.000000" fill-rule="nonzero"/>
	<path id="Vector" d="M32.15 12.28L32.15 11.26C32.15 8.01 34.05 5.86 37.94 5.86C41.61 5.86 43.22 8.04 43.22 11.22L43.22 13.05L35.71 13.05C35.79 14.62 36.5 15.32 38.48 15.32C39.82 15.32 41.23 15.06 42.27 14.62L42.93 17C41.99 17.49 40.05 17.85 38.34 17.85C33.83 17.85 32.15 15.65 32.15 12.28ZM35.71 10.78L40.02 10.78L40.02 10.49C40.02 9.24 39.5 8.24 37.94 8.24C36.33 8.24 35.71 9.23 35.71 10.78L35.71 10.78Z" fill="#4267B2" fill-opacity="1.000000" fill-rule="nonzero"/>
	<path id="Vector" d="M56.44 12.2C56.44 15.41 54.86 17.83 51.59 17.83C49.81 17.83 48.57 16.96 48.07 15.85L48.07 17.58L44.7 17.58L44.7 0.33L48.27 0.01L48.27 7.69C48.79 6.67 49.93 5.85 51.59 5.85C54.86 5.85 56.44 8.27 56.44 11.48L56.44 12.2ZM52.87 11.4C52.87 9.79 52.23 8.58 50.52 8.58C49.06 8.58 48.27 9.59 48.27 11.23L48.27 12.44C48.27 14.08 49.06 15.09 50.52 15.09C52.23 15.09 52.87 13.89 52.87 12.27L52.87 11.4Z" fill="#4267B2" fill-opacity="1.000000" fill-rule="nonzero"/>
	<path id="Vector" d="M57.63 12.13L57.63 11.55C57.63 8.24 59.57 5.85 63.5 5.85C67.44 5.85 69.38 8.24 69.38 11.55L69.38 12.13C69.38 15.43 67.44 17.82 63.51 17.82C59.57 17.82 57.63 15.43 57.63 12.13ZM65.81 11.31C65.81 9.79 65.16 8.58 63.5 8.58C61.83 8.58 61.19 9.79 61.19 11.31L61.19 12.37C61.19 13.89 61.84 15.09 63.5 15.09C65.16 15.09 65.81 13.89 65.81 12.37L65.81 11.31Z" fill="#4267B2" fill-opacity="1.000000" fill-rule="nonzero"/>
	<path id="Vector" d="M70.56 12.13L70.56 11.55C70.56 8.24 72.49 5.85 76.43 5.85C80.37 5.85 82.3 8.24 82.3 11.55L82.3 12.13C82.3 15.43 80.37 17.82 76.43 17.82C72.49 17.82 70.56 15.43 70.56 12.13ZM78.74 11.31C78.74 9.79 78.09 8.58 76.43 8.58C74.77 8.58 74.13 9.79 74.13 11.31L74.13 12.37C74.13 13.89 74.77 15.09 76.43 15.09C78.09 15.09 78.74 13.89 78.74 12.37L78.74 11.31Z" fill="#4267B2" fill-opacity="1.000000" fill-rule="nonzero"/>
	<path id="Vector" d="M87.21 11.57L90.73 6.1L94.51 6.1L90.82 11.77L94.66 17.58L90.87 17.58L87.21 11.96L87.21 17.58L83.64 17.58L83.64 0.33L87.21 0.01L87.21 11.57Z" fill="#4267B2" fill-opacity="1.000000" fill-rule="nonzero"/>
</svg>
