<svg width="29.000000" height="27.000000" viewBox="0 0 29 27" fill="none" xmlns="http://www.w3.org/2000/svg" xmlns:xlink="http://www.w3.org/1999/xlink">
	<desc>
			Created with Pixso.
	</desc>
	<defs/>
	<path id="Vector" d="M14.06 -0.54C10.71 -0.54 7.47 0.64 4.95 2.77C2.39 4.92 0.7 7.88 0.18 11.12C-0.36 14.37 0.3 17.69 2.03 20.53C3.74 23.33 6.43 25.45 9.62 26.51C10.33 26.63 10.58 26.2 10.58 25.83L10.58 23.47C6.65 24.32 5.82 21.61 5.82 21.61C5.57 20.77 5.01 20.05 4.26 19.57C2.99 18.72 4.37 18.72 4.37 18.72C4.81 18.78 5.23 18.94 5.61 19.19C5.98 19.44 6.29 19.77 6.51 20.15C6.7 20.49 6.96 20.79 7.27 21.04C7.73 21.4 8.3 21.63 8.89 21.68C9.49 21.72 10.08 21.6 10.6 21.31C10.66 20.61 10.96 19.95 11.47 19.45C8.34 19.1 5.06 17.91 5.06 12.64C5.04 11.27 5.56 9.94 6.51 8.92C6.08 7.72 6.13 6.41 6.64 5.25C6.64 5.25 7.83 4.87 10.51 6.67C12.81 6.04 15.25 6.04 17.55 6.67C20.23 4.87 21.4 5.25 21.4 5.25C21.92 6.4 21.98 7.7 21.58 8.89C22.53 9.91 23.04 11.24 23.02 12.61C23.02 17.95 19.73 19.11 16.6 19.43C16.93 19.76 17.19 20.16 17.36 20.6C17.52 21.04 17.59 21.51 17.56 21.98L17.56 25.79C17.56 26.24 17.81 26.59 18.52 26.46C21.67 25.37 24.33 23.25 26.01 20.45C27.71 17.63 28.35 14.33 27.81 11.1C27.29 7.89 25.62 4.95 23.09 2.8C20.59 0.68 17.39 -0.51 14.06 -0.54Z" fill="#F9F9F9" fill-opacity="1.000000" fill-rule="evenodd"/>
</svg>
