<svg width="169.362305" height="24.000488" viewBox="0 0 169.362 24.0005" fill="none" xmlns="http://www.w3.org/2000/svg" xmlns:xlink="http://www.w3.org/1999/xlink">
	<desc>
			Created with Pixso.
	</desc>
	<defs>
		<linearGradient x1="16.557997" y1="3.629357" x2="5.356000" y2="21.340359" id="paint_linear_1_78_0" gradientUnits="userSpaceOnUse">
			<stop stop-color="#FFB45B"/>
			<stop offset="1.000000" stop-color="#FF8A00"/>
		</linearGradient>
	</defs>
	<path id="Vector" d="M13.07 1.19C13.22 1.46 13.32 1.76 13.36 2.07C13.4 2.38 13.38 2.69 13.3 2.99C13.21 3.29 13.07 3.58 12.88 3.82C12.69 4.07 12.45 4.27 12.18 4.43L5.07 8.47C4.98 8.52 4.9 8.59 4.85 8.69C4.79 8.78 4.76 8.88 4.76 8.99L4.76 15.33C4.76 15.43 4.79 15.54 4.85 15.63C4.9 15.72 4.98 15.8 5.07 15.85L10.7 19.05C10.79 19.1 10.89 19.13 11 19.13C11.1 19.13 11.2 19.1 11.29 19.05L16.92 15.85C17.01 15.8 17.09 15.72 17.14 15.63C17.2 15.54 17.23 15.44 17.23 15.33L17.23 11.39L12.17 14.22C11.62 14.53 10.97 14.61 10.36 14.44C9.75 14.27 9.23 13.87 8.92 13.32C8.76 13.05 8.67 12.75 8.63 12.44C8.59 12.13 8.61 11.82 8.7 11.52C8.78 11.22 8.93 10.94 9.12 10.69C9.31 10.45 9.55 10.25 9.82 10.09L17.06 6.03C19.27 4.8 22 6.38 22 8.9L22 15.81C22 17.43 21.12 18.93 19.71 19.73L13.25 23.4C12.56 23.79 11.78 24 11 24C10.21 24 9.43 23.79 8.74 23.4L2.28 19.73C1.59 19.34 1.01 18.77 0.61 18.08C0.21 17.39 0 16.61 0 15.81L0 8.51C0 6.89 0.87 5.39 2.28 4.59L9.81 0.31C10.36 0 11.01 -0.09 11.62 0.08C12.23 0.24 12.75 0.64 13.07 1.19Z" fill="url(#paint_linear_1_78_0)" fill-opacity="1.000000" fill-rule="evenodd"/>
	<path id="2021" d="M105.7 17L111.29 17L111.29 16.11L107.01 16.11L109.3 13.63Q110.9 11.89 110.9 10.63Q110.9 9.95 110.6 9.44Q110.45 9.18 110.21 8.97Q110.16 8.93 110.11 8.89Q109.43 8.35 108.33 8.35Q107.28 8.35 106.58 8.84Q106.43 8.95 106.3 9.07Q106.06 9.3 105.89 9.58Q105.54 10.17 105.54 10.98L106.62 10.98Q106.62 10.24 106.98 9.8Q107.02 9.75 107.07 9.7Q107.14 9.63 107.21 9.57Q107.64 9.24 108.33 9.24Q108.81 9.24 109.15 9.45Q109.29 9.54 109.41 9.67Q109.52 9.78 109.6 9.92Q109.81 10.28 109.81 10.76Q109.81 10.89 109.8 11.01Q109.75 11.38 109.56 11.73Q109.31 12.19 108.66 12.93L105.7 16.22L105.7 17ZM117.14 16.19Q117.79 15.26 117.79 13.36L117.79 11.95Q117.77 10.11 117.12 9.23Q116.97 9.02 116.78 8.86Q116.15 8.35 115.1 8.35Q114.07 8.35 113.44 8.85Q113.23 9.03 113.06 9.26Q112.41 10.18 112.41 12.06L112.41 13.5Q112.43 15.3 113.09 16.21Q113.26 16.45 113.49 16.63Q114.11 17.11 115.11 17.11Q116.11 17.11 116.73 16.62Q116.96 16.44 117.14 16.19ZM119.18 17L124.77 17L124.77 16.11L120.49 16.11L122.77 13.63Q124.38 11.89 124.38 10.63Q124.38 9.95 124.08 9.44Q123.92 9.18 123.69 8.97Q123.64 8.93 123.59 8.89Q122.91 8.35 121.81 8.35Q120.76 8.35 120.06 8.84Q119.91 8.95 119.78 9.07Q119.53 9.3 119.37 9.58Q119.02 10.17 119.02 10.98L120.1 10.98Q120.1 10.24 120.46 9.8Q120.5 9.75 120.55 9.7Q120.61 9.63 120.69 9.57Q121.12 9.24 121.81 9.24Q122.28 9.24 122.63 9.45Q122.77 9.54 122.88 9.67Q123 9.78 123.08 9.92Q123.29 10.28 123.29 10.76Q123.29 10.89 123.27 11.01Q123.23 11.38 123.04 11.73Q122.79 12.19 122.13 12.93L119.18 16.22L119.18 17ZM128.39 17L129.48 17L129.48 8.42L129.31 8.42L126.21 9.59L126.21 10.57L128.39 9.77L128.39 17ZM116.32 9.87Q116.71 10.5 116.71 11.87L116.71 13.65Q116.69 14.99 116.3 15.61Q116.14 15.86 115.92 16.01Q115.59 16.23 115.11 16.23Q114.66 16.23 114.33 16.02Q114.07 15.86 113.89 15.57Q113.49 14.91 113.49 13.53L113.49 11.79Q113.5 10.49 113.88 9.86Q114.03 9.63 114.23 9.49Q114.57 9.24 115.1 9.24Q115.62 9.24 115.97 9.49Q116.18 9.63 116.32 9.87Z" fill="#12100C" fill-opacity="0.700000" fill-rule="evenodd"/>
	<path id="Copyright ©" d="M78.02 10.26Q77.53 10.49 77.16 10.96L77.16 7.25L75.98 7.25L75.98 17L77.16 17L77.16 12.1Q77.32 11.77 77.56 11.53Q77.68 11.4 77.83 11.3Q77.95 11.21 78.09 11.15Q78.43 11 78.83 11Q79.53 11 79.86 11.35Q79.87 11.35 79.87 11.35Q80.2 11.71 80.21 12.45L80.21 17L81.38 17L81.38 12.46Q81.37 11.08 80.68 10.47Q80.14 10 79.19 10Q78.54 10 78.02 10.26ZM38.03 16.09Q38.72 15.32 38.87 14.06L37.64 14.06Q37.46 15.21 36.92 15.67Q36.38 16.13 35.36 16.13Q34.75 16.13 34.28 15.86Q33.89 15.64 33.6 15.24Q32.98 14.35 32.98 12.84L32.98 11.95Q32.98 10.36 33.64 9.49Q33.91 9.14 34.27 8.93Q34.78 8.63 35.47 8.63Q36.37 8.63 36.9 9.08Q36.93 9.1 36.95 9.12Q37.48 9.62 37.64 10.72L38.87 10.72Q38.74 9.49 38.08 8.71Q37.96 8.57 37.83 8.45Q37.69 8.32 37.54 8.21Q36.72 7.63 35.47 7.63Q34.52 7.63 33.76 8.01Q33.64 8.08 33.52 8.15Q33.31 8.28 33.12 8.43Q32.56 8.91 32.21 9.65Q31.75 10.63 31.75 11.92L31.75 12.81Q31.75 14.72 32.69 15.89Q32.71 15.92 32.74 15.95Q33.14 16.43 33.65 16.71Q34.39 17.12 35.36 17.12Q36.74 17.12 37.62 16.46Q37.7 16.4 37.78 16.33Q37.91 16.21 38.03 16.09ZM65.62 7.97Q65.54 8.12 65.54 8.31Q65.54 8.5 65.62 8.65Q65.66 8.72 65.71 8.78Q65.73 8.8 65.75 8.82Q65.92 8.97 66.23 8.97Q66.54 8.97 66.71 8.82Q66.73 8.8 66.75 8.78Q66.81 8.72 66.85 8.65Q66.93 8.5 66.93 8.31Q66.93 8.12 66.86 7.98Q66.81 7.89 66.75 7.82Q66.73 7.8 66.7 7.77Q66.52 7.63 66.23 7.63Q65.94 7.63 65.77 7.77Q65.74 7.8 65.71 7.82Q65.65 7.89 65.62 7.97ZM90.52 10.87Q90.29 11.58 90.29 12.37Q90.29 13.12 90.5 13.81Q90.64 14.28 90.87 14.72Q91.15 15.26 91.55 15.69Q91.96 16.14 92.5 16.47Q92.99 16.78 93.53 16.94Q94.14 17.13 94.8 17.13Q95.48 17.13 96.09 16.94Q96.62 16.77 97.11 16.47Q97.67 16.11 98.09 15.64Q98.46 15.22 98.73 14.71Q98.98 14.23 99.12 13.73Q99.3 13.07 99.3 12.37Q99.3 11.58 99.08 10.87Q98.94 10.41 98.71 9.99Q98.37 9.36 97.88 8.88Q97.51 8.53 97.07 8.26Q96.53 7.93 95.95 7.78Q95.4 7.63 94.8 7.63Q94.22 7.63 93.67 7.77Q93.08 7.93 92.53 8.26Q92.08 8.53 91.71 8.9Q91.22 9.37 90.89 9.99Q90.66 10.41 90.52 10.87ZM91.22 13.66Q91.02 13.05 91.02 12.37Q91.02 11.73 91.2 11.14Q91.32 10.74 91.53 10.36Q91.84 9.79 92.3 9.37Q92.58 9.11 92.91 8.91Q93.36 8.64 93.85 8.51Q94.31 8.39 94.8 8.39Q95.32 8.39 95.79 8.52Q96.26 8.65 96.7 8.92Q97.05 9.13 97.34 9.41Q97.77 9.82 98.07 10.37Q98.26 10.72 98.38 11.09Q98.57 11.7 98.57 12.37Q98.57 13.05 98.38 13.66Q98.26 14.04 98.06 14.39Q97.73 15 97.25 15.43Q96.99 15.66 96.69 15.85Q96.25 16.11 95.77 16.24Q95.31 16.37 94.8 16.37Q94.31 16.37 93.85 16.25Q93.36 16.12 92.91 15.85Q92.6 15.66 92.33 15.42Q91.86 14.99 91.53 14.39Q91.34 14.04 91.22 13.66ZM84.73 10.13L84.73 8.46L83.56 8.46L83.56 10.13L82.31 10.13L82.31 11.04L83.56 11.04L83.56 15.29Q83.56 16.17 83.96 16.65Q84.04 16.74 84.13 16.81Q84.51 17.12 85.15 17.12Q85.58 17.12 86.05 17L86.05 16.04Q85.69 16.12 85.49 16.12Q85.08 16.12 84.91 15.92Q84.91 15.92 84.91 15.91Q84.73 15.71 84.73 15.29L84.73 11.04L86.02 11.04L86.02 10.13L84.73 10.13ZM96.4 14.55Q96.82 14.05 96.82 13.21L95.89 13.21Q95.89 13.85 95.6 14.11Q95.3 14.38 94.72 14.38Q94.37 14.38 94.1 14.23Q93.92 14.12 93.78 13.94Q93.44 13.5 93.44 12.74L93.44 12.03Q93.44 11.24 93.78 10.81Q93.92 10.63 94.1 10.52Q94.37 10.37 94.72 10.37Q95.3 10.37 95.6 10.64Q95.9 10.91 95.9 11.54L96.83 11.54Q96.83 10.74 96.44 10.25Q96.37 10.15 96.28 10.07Q96.26 10.05 96.25 10.04Q95.7 9.55 94.72 9.55Q94.1 9.55 93.63 9.81Q93.35 9.97 93.13 10.22Q93.06 10.3 92.99 10.39Q92.52 11.02 92.52 12.01L92.52 12.7Q92.52 13.79 93.06 14.45Q93.09 14.49 93.12 14.53Q93.33 14.76 93.59 14.91Q94.07 15.2 94.72 15.2Q95.7 15.2 96.24 14.71Q96.26 14.7 96.27 14.69Q96.34 14.62 96.4 14.55ZM40.43 11.68Q40.03 12.49 40.03 13.5L40.03 13.58Q40.03 14.98 40.7 15.9Q40.79 16.03 40.9 16.15Q41.24 16.54 41.67 16.77Q42.32 17.12 43.16 17.12Q43.92 17.12 44.53 16.83Q44.67 16.76 44.8 16.68Q45.05 16.53 45.25 16.34Q45.65 15.96 45.9 15.44Q46.29 14.64 46.29 13.64L46.29 13.56Q46.29 12.12 45.6 11.19Q45.52 11.08 45.42 10.97Q45.08 10.59 44.67 10.36Q44.01 10 43.15 10Q42.44 10 41.85 10.27Q41.69 10.34 41.54 10.44Q41.36 10.55 41.2 10.68Q40.73 11.08 40.43 11.68ZM52.84 16.16Q53.56 15.21 53.56 13.64L53.56 13.53Q53.56 11.87 52.84 10.93Q52.53 10.53 52.11 10.3Q51.58 10 50.88 10Q50.06 10 49.47 10.37Q49.14 10.58 48.89 10.89L48.83 10.13L47.76 10.13L47.76 19.64L48.93 19.64L48.93 16.33Q49.13 16.54 49.36 16.7Q49.99 17.12 50.9 17.12Q51.55 17.12 52.05 16.85Q52.51 16.62 52.84 16.16ZM63.88 11.14Q64.19 11.14 64.45 11.18L64.45 10.09Q64.28 10 63.93 10Q63.43 10 63.04 10.21Q62.6 10.44 62.3 10.92L62.28 10.13L61.13 10.13L61.13 17L62.31 17L62.31 12.12Q62.49 11.69 62.81 11.45Q63.22 11.14 63.88 11.14ZM69.15 10.95Q68.41 11.9 68.41 13.5Q68.41 15.18 69.15 16.15Q69.54 16.66 70.05 16.9Q70.53 17.12 71.11 17.12Q71.93 17.12 72.52 16.75Q72.8 16.57 73.03 16.31L73.03 16.9Q73.03 17.69 72.64 18.15Q72.6 18.21 72.55 18.26Q72.48 18.33 72.41 18.38Q71.95 18.74 71.21 18.74Q70.81 18.74 70.45 18.61Q69.84 18.39 69.37 17.81L68.76 18.51Q68.77 18.52 68.77 18.54Q69.15 19.07 69.84 19.38Q70.39 19.63 70.95 19.68Q71.12 19.7 71.3 19.7Q72.39 19.7 73.11 19.19Q73.28 19.07 73.42 18.93Q73.58 18.78 73.71 18.6Q74.21 17.89 74.21 16.83L74.21 10.13L73.14 10.13L73.08 10.89Q72.82 10.56 72.49 10.36Q71.92 10 71.12 10Q70.48 10 69.97 10.26Q69.51 10.5 69.15 10.95ZM58.83 10.13L57.23 15.28L55.52 10.13L54.23 10.13L56.68 16.92L56.42 17.62Q56.21 18.26 55.87 18.5Q55.54 18.74 54.94 18.74L54.63 18.72L54.63 19.67L55.07 19.75L55.29 19.77Q55.71 19.77 56.06 19.61Q56.88 19.25 57.33 18.06L60.09 10.13L58.83 10.13ZM65.63 17L66.81 17L66.81 10.13L65.63 10.13L65.63 17ZM41.74 15.47Q41.21 14.78 41.21 13.64Q41.21 12.35 41.75 11.66Q42.02 11.31 42.37 11.13Q42.72 10.97 43.15 10.97Q43.6 10.97 43.96 11.15Q44.31 11.32 44.58 11.67Q45.11 12.37 45.11 13.5Q45.11 14.76 44.59 15.46Q44.34 15.8 44 15.97Q43.63 16.16 43.16 16.16Q42.7 16.16 42.33 15.97Q42 15.8 41.74 15.47ZM51.89 11.67Q52.39 12.34 52.39 13.5Q52.39 14.82 51.89 15.49Q51.65 15.82 51.32 15.99Q50.98 16.16 50.55 16.16Q49.99 16.16 49.59 15.92Q49.19 15.69 48.93 15.22L48.93 11.94Q49.21 11.45 49.63 11.22Q50.02 11 50.53 11Q51 11 51.36 11.19Q51.66 11.36 51.89 11.67ZM70.06 15.46Q69.59 14.8 69.59 13.64Q69.59 12.33 70.07 11.66Q70.29 11.36 70.58 11.2Q70.94 11 71.41 11Q71.91 11 72.29 11.21Q72.74 11.45 73.03 11.98L73.03 15.12Q72.76 15.64 72.33 15.89Q71.93 16.13 71.4 16.13Q70.92 16.13 70.56 15.92Q70.28 15.76 70.06 15.46Z" fill="#12100C" fill-opacity="0.700000" fill-rule="evenodd"/>
	<path id="Gitpod" d="M164.31 10.96Q163.56 11.92 163.56 13.5L163.56 13.59Q163.56 15.17 164.31 16.14Q164.72 16.68 165.26 16.92Q165.71 17.12 166.26 17.12Q167.09 17.12 167.68 16.75Q167.98 16.55 168.22 16.26L168.28 17L169.36 17L169.36 7.25L168.18 7.25L168.18 10.83Q167.94 10.54 167.63 10.35Q167.06 10 166.27 10Q165.68 10 165.19 10.23Q164.69 10.47 164.31 10.96ZM139.67 16.06Q139.79 15.93 139.89 15.78L139.89 12.39L136.54 12.39L136.54 13.38L138.68 13.38L138.68 15.46Q138.61 15.54 138.53 15.6Q138.23 15.85 137.83 15.97Q137.31 16.13 136.63 16.13Q135.95 16.13 135.44 15.84Q135.02 15.62 134.71 15.21Q134 14.29 134 12.74L134 11.98Q134 10.35 134.63 9.49Q134.84 9.2 135.12 9.01Q135.67 8.63 136.49 8.63Q137.39 8.63 137.94 9.07Q138.5 9.53 138.67 10.46L139.89 10.46Q139.73 9.34 139.1 8.64Q138.97 8.49 138.81 8.37Q138.76 8.32 138.71 8.29Q137.85 7.63 136.48 7.63Q135.22 7.63 134.36 8.22Q134.02 8.45 133.74 8.78Q132.77 9.92 132.77 12.01L132.77 12.82Q132.78 14.11 133.26 15.08Q133.59 15.76 134.11 16.22Q134.35 16.43 134.62 16.59Q134.77 16.68 134.92 16.76Q135.68 17.12 136.62 17.12Q137.74 17.12 138.58 16.79Q139.24 16.53 139.67 16.06ZM141.82 7.97Q141.75 8.12 141.75 8.31Q141.75 8.5 141.83 8.65Q141.87 8.72 141.92 8.78Q141.94 8.8 141.96 8.82Q142.13 8.97 142.44 8.97Q142.74 8.97 142.92 8.82Q142.94 8.8 142.96 8.78Q143.02 8.72 143.06 8.65Q143.14 8.5 143.14 8.31Q143.14 8.12 143.06 7.98Q143.02 7.89 142.96 7.82Q142.93 7.8 142.9 7.77Q142.73 7.63 142.44 7.63Q142.14 7.63 141.97 7.77Q141.94 7.8 141.92 7.82Q141.86 7.89 141.82 7.97ZM146.49 10.13L146.49 8.46L145.31 8.46L145.31 10.13L144.06 10.13L144.06 11.04L145.31 11.04L145.31 15.29Q145.31 16.17 145.71 16.65Q145.79 16.74 145.88 16.81Q146.26 17.12 146.9 17.12Q147.34 17.12 147.8 17L147.8 16.04Q147.45 16.12 147.24 16.12Q146.83 16.12 146.66 15.92Q146.66 15.92 146.66 15.91Q146.49 15.71 146.49 15.29L146.49 11.04L147.77 11.04L147.77 10.13L146.49 10.13ZM154.22 16.16Q154.94 15.21 154.94 13.64L154.94 13.53Q154.94 11.87 154.22 10.93Q153.91 10.53 153.49 10.3Q152.96 10 152.26 10Q151.44 10 150.85 10.37Q150.52 10.58 150.27 10.89L150.21 10.13L149.14 10.13L149.14 19.64L150.31 19.64L150.31 16.33Q150.51 16.54 150.74 16.7Q151.37 17.12 152.28 17.12Q152.93 17.12 153.44 16.85Q153.89 16.62 154.22 16.16ZM156.52 11.68Q156.12 12.49 156.12 13.5L156.12 13.58Q156.12 14.98 156.79 15.9Q156.88 16.03 156.99 16.15Q157.33 16.54 157.76 16.77Q158.41 17.12 159.25 17.12Q160 17.12 160.62 16.83Q160.76 16.76 160.89 16.68Q161.14 16.53 161.34 16.34Q161.74 15.96 161.99 15.44Q162.38 14.64 162.38 13.64L162.38 13.56Q162.38 12.12 161.69 11.19Q161.6 11.08 161.51 10.97Q161.17 10.59 160.75 10.36Q160.1 10 159.24 10Q158.53 10 157.94 10.27Q157.78 10.34 157.62 10.44Q157.44 10.55 157.28 10.68Q156.82 11.08 156.52 11.68ZM141.84 17L143.02 17L143.02 10.13L141.84 10.13L141.84 17ZM157.83 15.47Q157.3 14.78 157.3 13.64Q157.3 12.35 157.84 11.66Q158.11 11.31 158.46 11.13Q158.81 10.97 159.24 10.97Q159.69 10.97 160.05 11.15Q160.4 11.32 160.66 11.67Q161.2 12.37 161.2 13.5Q161.2 14.76 160.67 15.46Q160.42 15.8 160.09 15.97Q159.72 16.16 159.25 16.16Q158.78 16.16 158.42 15.97Q158.09 15.8 157.83 15.47ZM153.27 11.67Q153.77 12.34 153.77 13.5Q153.77 14.82 153.27 15.49Q153.03 15.82 152.7 15.99Q152.36 16.16 151.93 16.16Q151.38 16.16 150.97 15.92Q150.57 15.69 150.31 15.22L150.31 11.94Q150.59 11.45 151.01 11.22Q151.4 11 151.91 11Q152.38 11 152.74 11.19Q153.05 11.36 153.27 11.67ZM165.22 15.47Q164.74 14.81 164.74 13.64Q164.74 12.33 165.22 11.66Q165.43 11.37 165.72 11.2Q166.08 11 166.56 11Q167.1 11 167.5 11.23Q167.91 11.47 168.18 11.97L168.18 15.12Q167.92 15.63 167.51 15.88Q167.1 16.13 166.55 16.13Q166.09 16.13 165.73 15.93Q165.44 15.76 165.22 15.47Z" fill="#12100C" fill-opacity="0.700000" fill-rule="evenodd"/>
</svg>

