<svg width="27.222412" height="26.427734" viewBox="0 0 27.2224 26.4277" fill="none" xmlns="http://www.w3.org/2000/svg" xmlns:xlink="http://www.w3.org/1999/xlink">
	<desc>
			Created with Pixso.
	</desc>
	<defs/>
	<path id="Vector" d="M13.61 26.42L8.59 10.16L18.61 10.16L13.61 26.42Z" fill="#FFFFFF" fill-opacity="1.000000" fill-rule="nonzero"/>
	<path id="Vector" d="M25.64 10.16L27.17 15.1C27.3 15.55 27.16 16.05 26.79 16.33L13.61 26.42L25.64 10.16Z" fill="#FFFFFF" fill-opacity="0.650000" fill-rule="nonzero"/>
	<path id="Vector" d="M25.64 10.16L18.61 10.16L21.64 0.37C21.79 -0.13 22.47 -0.13 22.63 0.37L25.64 10.16Z" fill="#FFFFFF" fill-opacity="1.000000" fill-rule="nonzero"/>
	<path id="Vector" d="M1.57 10.16L0.05 15.1C-0.09 15.55 0.06 16.05 0.42 16.33L13.61 26.42L1.57 10.16Z" fill="#FFFFFF" fill-opacity="0.650000" fill-rule="nonzero"/>
	<path id="Vector" d="M1.57 10.16L8.59 10.16L5.57 0.37C5.42 -0.13 4.75 -0.13 4.58 0.37L1.57 10.16Z" fill="#FFFFFF" fill-opacity="1.000000" fill-rule="nonzero"/>
	<path id="Vector" d="M13.61 26.42L8.59 10.16L1.57 10.16L13.61 26.42Z" fill="#FFFFFF" fill-opacity="0.850000" fill-rule="nonzero"/>
	<path id="Vector" d="M13.61 26.42L25.64 10.16L18.61 10.16L13.61 26.42Z" fill="#FFFFFF" fill-opacity="0.850000" fill-rule="nonzero"/>
</svg>
