<svg width="30.000000" height="30.000000" viewBox="0 0 30 30" fill="none" xmlns="http://www.w3.org/2000/svg" xmlns:xlink="http://www.w3.org/1999/xlink">
	<desc>
			Created with Pixso.
	</desc>
	<defs/>
	<path id="Vector" d="M14.49 0C11.05 0 7.72 1.25 5.1 3.54C2.48 5.83 0.73 9 0.18 12.48C-0.37 15.97 0.31 19.54 2.09 22.56C3.87 25.58 6.64 27.85 9.91 28.97C10.63 29.1 10.9 28.65 10.9 28.26C10.9 27.91 10.88 26.73 10.88 25.49C7.24 26.18 6.3 24.58 6.01 23.74C5.69 22.93 5.17 22.21 4.52 21.64C4.01 21.37 3.29 20.68 4.5 20.66C4.96 20.71 5.41 20.88 5.8 21.14C6.19 21.41 6.51 21.77 6.73 22.19C6.93 22.55 7.19 22.87 7.51 23.13C7.83 23.39 8.2 23.59 8.59 23.7C8.98 23.81 9.4 23.85 9.8 23.8C10.2 23.75 10.6 23.62 10.95 23.41C11.01 22.66 11.34 21.95 11.88 21.43C8.65 21.05 5.28 19.77 5.28 14.09C5.26 12.61 5.79 11.18 6.77 10.09C6.32 8.81 6.38 7.4 6.91 6.15C6.91 6.15 8.13 5.76 10.9 7.68C13.27 7.01 15.78 7.01 18.15 7.68C20.92 5.75 22.14 6.15 22.14 6.15C22.68 7.4 22.73 8.81 22.28 10.09C23.26 11.18 23.8 12.61 23.77 14.09C23.77 19.79 20.38 21.05 17.16 21.43C17.5 21.79 17.77 22.22 17.94 22.69C18.11 23.17 18.18 23.67 18.14 24.18C18.14 26.16 18.12 27.76 18.12 28.27C18.12 28.66 18.39 29.12 19.11 28.97C22.38 27.85 25.14 25.57 26.92 22.55C28.7 19.53 29.37 15.95 28.81 12.47C28.26 8.99 26.51 5.82 23.89 3.54C21.27 1.25 17.94 0 14.49 0L14.49 0Z" fill="#1B1F23" fill-opacity="1.000000" fill-rule="evenodd"/>
</svg>
