<svg width="75.000000" height="49.000000" viewBox="0 0 75 49" fill="none" xmlns="http://www.w3.org/2000/svg" xmlns:xlink="http://www.w3.org/1999/xlink">
	<desc>
			Created with Pixso.
	</desc>
	<defs/>
	<path id="path4423" d="M21.49 20.24L21.49 32.36L17.61 32.36L17.61 17.13L25.62 17.14C29.02 17.14 30.18 19.52 30.18 21.69L30.18 32.36L26.31 32.36L26.31 21.71C26.31 20.8 25.84 20.24 24.7 20.24L21.49 20.24L21.49 20.24ZM47.88 20.06C46.55 20.06 45.53 20.74 45.1 21.66C44.84 22.21 44.76 22.63 44.73 23.31L50.7 23.31C50.62 21.66 49.87 20.06 47.88 20.06ZM44.73 25.94C44.73 27.91 45.96 29.36 48.16 29.36C49.88 29.36 50.73 28.89 51.72 27.91L54.12 30.19C52.58 31.69 50.97 32.61 48.13 32.61C44.42 32.61 40.86 30.59 40.86 24.72C40.86 19.71 43.97 16.87 48.05 16.87C52.18 16.87 54.57 20.19 54.57 24.55L54.57 25.94L44.73 25.94ZM37.59 32.34C34.43 32.34 33.09 30.16 33.09 27.99L33.09 12.98L36.96 12.98L36.96 17.13L39.88 17.13L39.88 20.24L36.96 20.24L36.96 27.75C36.96 28.64 37.38 29.13 38.3 29.13L39.88 29.13L39.88 32.34L37.59 32.34ZM14.16 15.02L10.25 15.02L10.25 11.33L14.16 11.33L14.16 15.02ZM14.17 32.52C11.24 32.24 10.25 30.48 10.25 28.44L10.25 17.13L14.17 17.13L14.17 32.52L14.17 32.52ZM60.74 32.2C57.82 31.92 56.83 30.16 56.83 28.12L56.83 10.81L60.74 10.81L60.74 32.2ZM74.41 13.31C70.86 -3.87 37.32 -4.96 15.7 8.13L15.7 9.57C37.3 -1.46 67.93 -1.4 70.72 14.42C71.66 19.66 68.69 25.11 63.39 28.25L63.39 32.35C69.77 30.03 76.31 22.51 74.41 13.31ZM35.11 43.37C20.19 44.74 4.64 42.58 2.47 30.99C1.4 25.28 4.02 19.22 7.49 15.46L7.49 13.44C1.24 18.9 -2.15 25.8 -0.2 33.95C2.29 44.41 15.64 50.34 36.01 48.37C44.06 47.59 54.61 45.01 61.94 41.01L61.94 35.32C55.29 39.26 44.28 42.52 35.11 43.37Z" fill="#0071C5" fill-opacity="1.000000" fill-rule="nonzero"/>
</svg>
