<svg width="27.000671" height="27.006348" viewBox="0 0 27.0007 27.0063" fill="none" xmlns="http://www.w3.org/2000/svg" xmlns:xlink="http://www.w3.org/1999/xlink">
	<desc>
			Created with Pixso.
	</desc>
	<defs/>
	<path id="Vector" d="M25.27 3.57C22.27 -0.02 16.3 -1.08 12 1.19L4.43 5.22C2.37 6.29 0.94 8.05 0.52 10.04C0.17 11.71 0.47 13.43 1.43 14.92C0.77 15.74 0.33 16.66 0.14 17.62C-0.3 19.65 0.28 21.76 1.71 23.43C4.74 27.02 10.68 28.07 14.97 25.81L22.54 21.8C24.61 20.73 26.04 18.97 26.45 16.98C26.81 15.31 26.51 13.59 25.54 12.1C26.2 11.28 26.64 10.36 26.84 9.4C27.3 7.34 26.73 5.24 25.27 3.57Z" fill="#FF3E00" fill-opacity="1.000000" fill-rule="nonzero"/>
	<path id="Vector" d="M11.26 23.77C8.81 24.3 6.25 23.5 4.82 21.78C3.94 20.77 3.61 19.52 3.86 18.28C3.91 18.07 3.97 17.89 4.02 17.69L4.16 17.32L4.54 17.55C5.45 18.1 6.44 18.51 7.52 18.78L7.79 18.85L7.76 19.08C7.74 19.4 7.85 19.74 8.07 20.02C8.51 20.55 9.28 20.8 10.02 20.64C10.19 20.59 10.35 20.55 10.49 20.48L18.03 16.47C18.41 16.27 18.66 15.97 18.75 15.6C18.83 15.24 18.72 14.85 18.47 14.55C18.03 14.02 17.26 13.8 16.52 13.96C16.35 14 16.19 14.05 16.05 14.12L13.16 15.65C12.69 15.9 12.17 16.08 11.62 16.2C9.17 16.72 6.61 15.92 5.18 14.21C4.32 13.2 3.97 11.94 4.24 10.71C4.49 9.52 5.37 8.44 6.61 7.8L14.18 3.8C14.64 3.54 15.17 3.36 15.72 3.22C18.17 2.7 20.73 3.5 22.16 5.21C23.04 6.22 23.37 7.48 23.12 8.72C23.07 8.92 23.01 9.1 22.93 9.31L22.79 9.68L22.41 9.45C21.5 8.9 20.51 8.49 19.43 8.21L19.16 8.14L19.19 7.91C19.21 7.59 19.1 7.25 18.88 6.98C18.44 6.45 17.67 6.22 16.93 6.38C16.76 6.43 16.6 6.47 16.46 6.54L8.92 10.55C8.53 10.75 8.29 11.05 8.2 11.42C8.12 11.78 8.23 12.17 8.48 12.47C8.92 12.99 9.69 13.22 10.43 13.06C10.6 13.02 10.76 12.97 10.9 12.9L13.79 11.37C14.26 11.12 14.78 10.94 15.33 10.8C17.78 10.27 20.34 11.07 21.77 12.79C22.65 13.8 22.98 15.05 22.74 16.29C22.49 17.48 21.61 18.55 20.37 19.2L12.8 23.2C12.33 23.45 11.81 23.63 11.26 23.77Z" fill="#FFFFFF" fill-opacity="1.000000" fill-rule="nonzero"/>
</svg>
