
<svg width="28.997665" height="29.000488" viewBox="0 0 28.9977 29.0005" fill="none" xmlns="http://www.w3.org/2000/svg" xmlns:xlink="http://www.w3.org/1999/xlink">
	<desc>
			Created with Pixso.
	</desc>
	<defs/>
	<path id="Vector" d="M28.94 16.58L27.32 11.16L24.1 0.41C24.06 0.29 23.99 0.18 23.89 0.11C23.8 0.04 23.69 0 23.57 0C23.46 0 23.35 0.04 23.26 0.11C23.16 0.18 23.09 0.29 23.05 0.41L19.83 11.16L9.15 11.16L5.94 0.41C5.89 0.29 5.82 0.18 5.73 0.11C5.63 0.04 5.52 0 5.41 0C5.3 0 5.19 0.04 5.09 0.11C5 0.18 4.93 0.29 4.89 0.41L1.67 11.16L0.05 16.58C-0.02 16.82 -0.02 17.09 0.05 17.33C0.12 17.57 0.26 17.78 0.45 17.92L14.49 29L28.54 17.92C28.72 17.78 28.86 17.57 28.94 17.33C29.01 17.09 29.01 16.82 28.94 16.58L28.94 16.58Z" fill="#FC6D26" fill-opacity="1.000000" fill-rule="evenodd"/>
	<path id="Vector" d="M1.67 11.15L0.05 16.58C-0.02 16.82 -0.02 17.08 0.05 17.33C0.12 17.57 0.26 17.78 0.45 17.92L14.49 28.99L1.67 11.15Z" fill="#FCA326" fill-opacity="1.000000" fill-rule="evenodd"/>
	<path id="Vector" d="M1.67 11.15L9.15 11.15L5.94 0.41C5.89 0.29 5.82 0.18 5.73 0.11C5.63 0.03 5.52 0 5.41 0C5.3 0 5.19 0.03 5.09 0.11C5 0.18 4.93 0.29 4.89 0.41L1.67 11.15Z" fill="#E24329" fill-opacity="1.000000" fill-rule="evenodd"/>
	<path id="Vector" d="M27.32 11.15L28.94 16.58C29.01 16.82 29.01 17.08 28.94 17.33C28.86 17.57 28.72 17.78 28.54 17.92L14.49 28.99L27.32 11.15Z" fill="#FCA326" fill-opacity="1.000000" fill-rule="evenodd"/>
	<path id="Vector" d="M27.32 11.15L19.83 11.15L23.05 0.41C23.09 0.29 23.17 0.18 23.26 0.11C23.35 0.03 23.46 0 23.58 0C23.69 0 23.8 0.03 23.89 0.11C23.99 0.18 24.06 0.29 24.1 0.41L27.32 11.15L27.32 11.15Z" fill="#E24329" fill-opacity="1.000000" fill-rule="evenodd"/>
</svg>

