<svg width="21.789612" height="9.208496" viewBox="0 0 21.7896 9.2085" fill="none" xmlns="http://www.w3.org/2000/svg" xmlns:xlink="http://www.w3.org/1999/xlink">
	<desc>
			Created with Pixso.
	</desc>
	<defs/>
	<path id="Vector" d="M0.04 3.89C0 3.89 -0.02 3.86 0.01 3.83L0.23 3.5C0.25 3.47 0.3 3.44 0.35 3.44L5.18 3.44C5.23 3.44 5.25 3.48 5.24 3.52L5.15 3.8C5.14 3.85 5.1 3.88 5.06 3.88L0.04 3.89Z" fill="#00ACD7" fill-opacity="1.000000" fill-rule="nonzero"/>
	<path id="Vector" d="M2.6 4.99C2.56 4.99 2.55 4.96 2.57 4.92L2.72 4.62C2.74 4.58 2.79 4.55 2.83 4.55L4.95 4.55C4.99 4.55 5.01 4.58 5.01 4.63L4.99 4.92C4.99 4.97 4.95 5 4.92 5L2.6 4.99Z" fill="#00ACD7" fill-opacity="1.000000" fill-rule="nonzero"/>
	<path id="Vector" d="M13.62 2.57C12.95 2.76 12.49 2.9 11.83 3.1C11.68 3.14 11.66 3.16 11.53 2.97C11.37 2.77 11.25 2.64 11.03 2.52C10.36 2.15 9.71 2.26 9.11 2.7C8.39 3.23 8.02 4.01 8.03 4.98C8.04 5.94 8.62 6.73 9.46 6.86C10.18 6.97 10.78 6.68 11.26 6.07C11.36 5.94 11.44 5.8 11.55 5.63C11.17 5.63 10.69 5.63 9.5 5.63C9.28 5.63 9.22 5.47 9.3 5.27C9.44 4.89 9.69 4.27 9.84 3.96C9.87 3.89 9.95 3.77 10.11 3.77C10.65 3.77 12.64 3.77 13.97 3.77C13.95 4.09 13.95 4.41 13.9 4.74C13.79 5.6 13.5 6.39 13.03 7.09C12.27 8.23 11.27 8.94 10.01 9.13C8.97 9.29 8 9.06 7.16 8.34C6.37 7.67 5.93 6.78 5.81 5.68C5.67 4.37 6.01 3.19 6.71 2.16C7.46 1.04 8.46 0.34 9.68 0.08C10.68 -0.12 11.63 0.01 12.49 0.67C13.05 1.09 13.46 1.67 13.72 2.36C13.79 2.47 13.74 2.53 13.62 2.57Z" fill="#00ACD7" fill-opacity="1.000000" fill-rule="nonzero"/>
	<path id="Vector" d="M17.13 9.2C16.16 9.18 15.28 8.87 14.54 8.15C13.91 7.54 13.52 6.76 13.39 5.83C13.2 4.48 13.53 3.28 14.25 2.21C15.03 1.06 15.96 0.46 17.22 0.2C18.31 -0.01 19.32 0.11 20.25 0.82C21.09 1.46 21.61 2.34 21.74 3.49C21.92 5.11 21.51 6.43 20.52 7.56C19.82 8.36 18.96 8.87 17.98 9.1C17.69 9.16 17.4 9.17 17.13 9.2ZM19.65 4.36C19.64 4.2 19.64 4.08 19.62 3.96C19.43 2.77 18.47 2.1 17.46 2.36C16.47 2.62 15.83 3.32 15.6 4.45C15.41 5.39 15.81 6.34 16.58 6.72C17.16 7.01 17.74 6.97 18.31 6.65C19.14 6.16 19.6 5.39 19.65 4.36Z" fill="#00ACD7" fill-opacity="1.000000" fill-rule="nonzero"/>
</svg>

