<svg width="18.000000" height="18.000000" viewBox="0 0 18 18" fill="none" xmlns="http://www.w3.org/2000/svg" xmlns:xlink="http://www.w3.org/1999/xlink">
	<desc>
			Created with Pixso.
	</desc>
	<defs/>
	<path id="Vector" d="M8.32 -0.57C3.43 -0.57 -0.55 3.41 -0.55 8.3C-0.55 13.18 3.43 17.16 8.32 17.16C13.2 17.16 17.18 13.18 17.18 8.3C17.18 3.41 13.2 -0.57 8.32 -0.57ZM8.3 0.22C8.46 0.23 8.6 0.29 8.71 0.4C8.81 0.51 8.87 0.65 8.87 0.81C8.87 0.96 8.81 1.11 8.7 1.22C8.59 1.33 8.44 1.39 8.29 1.39C8.13 1.39 7.98 1.33 7.87 1.22C7.77 1.11 7.7 0.96 7.7 0.81C7.7 0.73 7.72 0.65 7.75 0.58C7.78 0.51 7.82 0.44 7.88 0.39C7.94 0.33 8 0.29 8.08 0.26C8.15 0.23 8.23 0.22 8.3 0.22ZM9.64 1.18C10.66 1.37 11.63 1.79 12.48 2.39C13.33 3 14.04 3.78 14.55 4.68L13.86 6.23C13.75 6.5 13.87 6.82 14.13 6.94L15.46 7.52C15.5 7.94 15.5 8.35 15.47 8.77L14.74 8.77C14.66 8.77 14.63 8.82 14.63 8.89L14.63 9.23C14.63 10.02 14.18 10.2 13.79 10.24C13.42 10.28 13 10.08 12.95 9.85C12.73 8.61 12.36 8.35 11.78 7.89C12.5 7.43 13.25 6.75 13.25 5.85C13.25 4.87 12.58 4.26 12.13 3.95C11.48 3.53 10.78 3.45 10.58 3.45L2.97 3.45C4.02 2.27 5.43 1.48 6.99 1.18L7.88 2.12C8.09 2.34 8.42 2.35 8.63 2.14L9.64 1.18ZM1.35 5.5C1.5 5.5 1.65 5.57 1.75 5.68C1.86 5.78 1.92 5.93 1.92 6.08C1.92 6.24 1.86 6.38 1.75 6.49C1.64 6.6 1.49 6.66 1.33 6.66C1.18 6.66 1.03 6.6 0.92 6.49C0.81 6.38 0.75 6.24 0.75 6.08C0.75 6 0.77 5.93 0.8 5.85C0.83 5.78 0.87 5.72 0.93 5.66C0.98 5.61 1.05 5.57 1.12 5.54C1.2 5.51 1.27 5.5 1.35 5.5ZM15.25 5.52C15.41 5.53 15.55 5.59 15.66 5.7C15.76 5.81 15.82 5.96 15.82 6.11C15.82 6.26 15.76 6.41 15.65 6.52C15.54 6.63 15.39 6.69 15.24 6.69C15.08 6.69 14.93 6.63 14.83 6.52C14.72 6.41 14.65 6.26 14.65 6.11C14.65 6.03 14.67 5.95 14.7 5.88C14.73 5.81 14.78 5.74 14.83 5.69C14.89 5.64 14.95 5.59 15.03 5.56C15.1 5.54 15.18 5.52 15.25 5.52ZM2.45 5.62L3.47 5.62L3.47 10.2L1.41 10.2C1.16 9.31 1.08 8.38 1.18 7.46L2.44 6.9C2.71 6.78 2.83 6.47 2.71 6.2L2.45 5.62ZM6.69 5.67L9.11 5.67C9.24 5.67 10 5.81 10 6.38C10 6.85 9.41 7.02 8.94 7.02L6.69 7.02L6.69 5.67ZM6.69 8.96L8.55 8.96C8.71 8.96 9.45 9.01 9.69 9.95C9.76 10.24 9.92 11.18 10.03 11.48C10.14 11.82 10.59 12.49 11.07 12.49L14.1 12.49C13.89 12.77 13.67 13.02 13.43 13.26L12.2 13C11.91 12.94 11.63 13.12 11.57 13.41L11.28 14.77C10.34 15.2 9.31 15.42 8.28 15.41C7.25 15.41 6.23 15.18 5.29 14.74L5 13.38C4.94 13.09 4.66 12.91 4.37 12.97L3.16 13.23C2.94 13 2.73 12.75 2.54 12.49L8.4 12.49C8.47 12.49 8.52 12.48 8.52 12.42L8.52 10.35C8.52 10.29 8.47 10.27 8.4 10.27L6.69 10.27L6.69 8.96ZM3.99 13.71C4.14 13.71 4.28 13.78 4.39 13.89C4.49 14 4.55 14.14 4.55 14.29C4.55 14.45 4.49 14.6 4.38 14.71C4.27 14.81 4.12 14.88 3.97 14.88C3.81 14.88 3.67 14.81 3.56 14.71C3.45 14.6 3.39 14.45 3.39 14.29C3.39 14.21 3.4 14.14 3.43 14.07C3.46 13.99 3.51 13.93 3.56 13.87C3.62 13.82 3.68 13.78 3.76 13.75C3.83 13.72 3.91 13.71 3.99 13.71ZM12.62 13.74C12.77 13.74 12.92 13.8 13.02 13.91C13.13 14.02 13.19 14.17 13.19 14.32C13.19 14.47 13.12 14.62 13.02 14.73C12.91 14.84 12.76 14.9 12.6 14.9C12.45 14.9 12.3 14.84 12.19 14.73C12.08 14.62 12.02 14.47 12.02 14.32C12.02 14.24 12.04 14.16 12.07 14.09C12.1 14.02 12.14 13.95 12.2 13.9C12.25 13.85 12.32 13.8 12.39 13.77C12.46 13.75 12.54 13.73 12.62 13.74Z" fill="#000000" fill-opacity="1.000000" fill-rule="nonzero"/>
</svg>

