<svg width="76.382996" height="23.548828" viewBox="0 0 76.383 23.5488" fill="none" xmlns="http://www.w3.org/2000/svg" xmlns:xlink="http://www.w3.org/1999/xlink">
	<desc>
			Created with Pixso.
	</desc>
	<defs/>
	<path id="Vector" d="M25.35 13.19L24 9.01C24 9.01 24 9.01 24 9.02C24 9.01 24 9.01 24 9.01L24 9.01L24 9.01L21.31 0.72C21.16 0.28 20.76 -0.01 20.3 0C19.83 0 19.44 0.28 19.29 0.73L16.74 8.59L8.69 8.59L6.13 0.73C5.99 0.28 5.59 0 5.13 0L5.12 0C4.67 0 4.26 0.29 4.11 0.73L1.43 9.01L1.43 9.01L1.43 9.01C1.43 9.01 1.43 9.01 1.43 9.02C1.43 9.01 1.43 9.01 1.43 9.01L0.07 13.19C-0.03 13.49 -0.03 13.82 0.07 14.13C0.17 14.43 0.36 14.7 0.62 14.89L12.36 23.43C12.36 23.43 12.36 23.43 12.36 23.43C12.37 23.44 12.37 23.44 12.38 23.44C12.37 23.44 12.37 23.44 12.37 23.43L12.37 23.43C12.37 23.43 12.37 23.43 12.37 23.43L12.37 23.44L12.37 23.44C12.39 23.45 12.41 23.46 12.43 23.47C12.43 23.47 12.43 23.47 12.43 23.48L12.43 23.48C12.44 23.48 12.44 23.48 12.44 23.48C12.44 23.48 12.44 23.48 12.44 23.48C12.44 23.48 12.45 23.48 12.45 23.48C12.45 23.48 12.45 23.48 12.45 23.48C12.46 23.49 12.47 23.49 12.48 23.5C12.49 23.5 12.5 23.51 12.51 23.51L12.52 23.51C12.52 23.51 12.52 23.51 12.52 23.51C12.52 23.51 12.52 23.51 12.53 23.51L12.53 23.52C12.53 23.52 12.53 23.52 12.54 23.52L12.54 23.52C12.55 23.52 12.57 23.53 12.58 23.53C12.59 23.53 12.59 23.53 12.6 23.53L12.6 23.53C12.6 23.53 12.61 23.53 12.61 23.53C12.61 23.54 12.61 23.54 12.62 23.54C12.62 23.54 12.62 23.54 12.62 23.54L12.63 23.54L12.63 23.54C12.65 23.54 12.68 23.54 12.71 23.54L12.71 23.54C12.74 23.54 12.77 23.54 12.8 23.54L12.8 23.54L12.8 23.54C12.8 23.54 12.8 23.54 12.81 23.54C12.81 23.54 12.81 23.54 12.81 23.53C12.82 23.53 12.82 23.53 12.82 23.53L12.82 23.53C12.83 23.53 12.83 23.53 12.84 23.53C12.85 23.53 12.87 23.52 12.88 23.52L12.89 23.52C12.89 23.52 12.89 23.52 12.89 23.52C12.9 23.52 12.9 23.51 12.9 23.51C12.9 23.51 12.9 23.51 12.9 23.51C12.9 23.51 12.91 23.51 12.91 23.51L12.91 23.51C12.92 23.51 12.93 23.5 12.94 23.5C12.95 23.49 12.96 23.49 12.97 23.48C12.97 23.48 12.97 23.48 12.98 23.48L12.98 23.48C12.98 23.48 12.98 23.48 12.98 23.48C12.98 23.48 12.99 23.48 12.99 23.48L12.99 23.48C12.99 23.47 12.99 23.47 13 23.47C13.02 23.46 13.03 23.45 13.05 23.44C13.05 23.44 13.06 23.43 13.06 23.43L13.06 23.43C13.06 23.43 13.06 23.43 13.06 23.43L24.8 14.89C25.06 14.7 25.26 14.43 25.36 14.13C25.45 13.82 25.45 13.49 25.35 13.19ZM20.3 1.5L22.6 8.59L18 8.59L20.3 1.5ZM22.2 9.79L21.26 11L14.33 19.89L17.61 9.79L22.2 9.79L22.2 9.79ZM12.14 23.13C12.14 23.13 12.14 23.13 12.14 23.13C12.14 23.13 12.14 23.13 12.14 23.13ZM11.09 19.89L3.23 9.79L7.82 9.79L11.09 19.89ZM5.12 1.5L7.43 8.59L2.82 8.59L5.12 1.5ZM1.33 13.92C1.27 13.88 1.23 13.82 1.21 13.76C1.19 13.69 1.19 13.62 1.21 13.56L2.22 10.45L9.62 19.96L1.33 13.92ZM12.34 23.41C12.34 23.41 12.33 23.41 12.33 23.41L12.33 23.41C12.33 23.4 12.32 23.4 12.32 23.39C12.31 23.39 12.3 23.38 12.29 23.37L12.29 23.37L12.3 23.38C12.31 23.39 12.33 23.41 12.35 23.42L12.35 23.42C12.35 23.42 12.35 23.42 12.35 23.43C12.35 23.42 12.34 23.42 12.34 23.41ZM12.71 21L10.79 15.06L9.08 9.79L16.35 9.79L12.71 21ZM13.11 23.39C13.1 23.4 13.1 23.4 13.09 23.41L13.09 23.41C13.09 23.41 13.09 23.41 13.08 23.41C13.08 23.42 13.07 23.42 13.07 23.43C13.07 23.42 13.07 23.42 13.07 23.42L13.07 23.42C13.09 23.41 13.11 23.39 13.13 23.38C13.13 23.38 13.13 23.38 13.13 23.37C13.13 23.37 13.13 23.37 13.13 23.37C13.12 23.38 13.11 23.39 13.11 23.39ZM24.1 13.92L15.8 19.95L23.21 10.45L24.21 13.56C24.24 13.62 24.24 13.69 24.21 13.76C24.19 13.82 24.15 13.88 24.1 13.92Z" fill="#231F20" fill-opacity="1.000000" fill-rule="nonzero"/>
	<path id="path14 9" d="M53.73 5.72L52.1 5.72L52.11 17.93L58.73 17.93L58.73 16.41L53.74 16.41L53.73 5.72Z" fill="#231F20" fill-opacity="1.000000" fill-rule="nonzero"/>
	<path id="path26 9" d="M65.04 15.78C64.62 16.21 63.94 16.64 63.01 16.64C61.76 16.64 61.26 16.02 61.26 15.22C61.26 14.01 62.1 13.43 63.89 13.43C64.23 13.43 64.77 13.47 65.04 13.52L65.04 15.78L65.04 15.78ZM63.34 8.38C62.02 8.38 60.8 8.85 59.86 9.64L60.44 10.64C61.1 10.25 61.92 9.86 63.1 9.86C64.44 9.86 65.04 10.55 65.04 11.71L65.04 12.3C64.77 12.25 64.23 12.21 63.9 12.21C61.04 12.21 59.58 13.22 59.58 15.32C59.58 17.21 60.74 18.16 62.49 18.16C63.66 18.16 64.8 17.62 65.19 16.74L65.49 17.93L66.64 17.93L66.64 11.68C66.63 9.7 65.78 8.38 63.34 8.38Z" fill="#231F20" fill-opacity="1.000000" fill-rule="nonzero"/>
	<path id="path30 9" d="M71.92 16.69C71.31 16.69 70.76 16.62 70.36 16.43L70.36 10.79C70.92 10.32 71.61 9.99 72.48 9.99C74.07 9.99 74.67 11.1 74.67 12.92C74.67 15.49 73.69 16.69 71.92 16.69ZM72.61 8.39C71.15 8.39 70.36 9.38 70.36 9.38L70.36 7.81L70.35 5.72L68.75 5.72L68.76 17.63C69.56 17.96 70.66 18.14 71.85 18.14C74.91 18.14 76.38 16.19 76.38 12.82C76.37 10.15 75.01 8.39 72.61 8.39Z" fill="#231F20" fill-opacity="1.000000" fill-rule="nonzero"/>
	<path id="path34 9" d="M35.92 7.04C37.37 7.04 38.31 7.52 38.92 8.01L39.62 6.79C38.67 5.94 37.38 5.49 36 5.49C32.52 5.49 30.08 7.62 30.08 11.91C30.08 16.4 32.71 18.15 35.72 18.15C37.23 18.15 38.51 17.8 39.35 17.45L39.31 12.65L39.31 11.14L34.85 11.14L34.85 12.65L37.7 12.65L37.74 16.29C37.36 16.48 36.72 16.63 35.84 16.63C33.42 16.63 31.8 15.1 31.8 11.89C31.8 8.63 33.47 7.04 35.92 7.04Z" fill="#231F20" fill-opacity="1.000000" fill-rule="nonzero"/>
	<path id="path38 9" d="M47.44 5.71L45.84 5.71L45.85 7.77L45.85 14.85C45.85 16.83 46.71 18.15 49.15 18.15C49.48 18.15 49.81 18.12 50.13 18.06L50.13 16.62C49.9 16.66 49.65 16.68 49.39 16.68C48.04 16.68 47.45 15.98 47.45 14.83L47.45 9.94L50.13 9.94L50.13 8.61L47.45 8.61L47.44 5.71Z" fill="#231F20" fill-opacity="1.000000" fill-rule="nonzero"/>
	<path id="path40 28" d="M41.78 17.92L43.38 17.92L43.38 8.61L41.78 8.61L41.78 17.92Z" fill="#231F20" fill-opacity="1.000000" fill-rule="nonzero"/>
</svg>
