<svg width="101.442078" height="14.866699" viewBox="0 0 101.442 14.8667" fill="none" xmlns="http://www.w3.org/2000/svg" xmlns:xlink="http://www.w3.org/1999/xlink">
	<desc>
			Created with Pixso.
	</desc>
	<defs/>
	<path id="Vector" d="M95.54 0.05C95.54 0.05 96.18 0.05 96.45 0.25C96.45 0.25 96.72 0.45 96.93 1.06L101.41 14.36C101.41 14.36 101.47 14.53 101.42 14.67C101.42 14.67 101.37 14.81 101.14 14.81L99.24 14.81C99.24 14.81 99.01 14.81 98.88 14.75C98.88 14.75 98.74 14.7 98.66 14.47L97.75 11.59L92.51 11.59L91.6 14.45C91.6 14.45 91.54 14.64 91.42 14.72C91.42 14.72 91.31 14.81 91.06 14.81L89.16 14.81C89.16 14.81 88.93 14.81 88.87 14.67C88.87 14.67 88.81 14.53 88.87 14.36L93.33 1.06C93.33 1.06 93.44 0.75 93.54 0.56C93.54 0.56 93.64 0.37 93.8 0.26C93.8 0.26 93.95 0.16 94.16 0.11C94.16 0.11 94.37 0.05 94.65 0.05L95.54 0.05ZM95.15 2.89L95.05 2.89L94.2 5.81L93.13 9.4L97.09 9.4L96.02 5.87L95.15 2.89Z" fill="#000000" fill-opacity="1.000000" fill-rule="nonzero"/>
	<path id="Vector" d="M52.9 0.09C52.9 0.09 53.19 0.09 53.3 0.17C53.3 0.17 53.4 0.24 53.4 0.54L53.4 5.98L59.82 5.98L59.82 0.54C59.82 0.54 59.82 0.26 59.94 0.18C59.94 0.18 60.05 0.09 60.3 0.09L61.87 0.09C61.87 0.09 62.16 0.09 62.25 0.17C62.25 0.17 62.35 0.24 62.35 0.54L62.35 14.37C62.35 14.37 62.35 14.66 62.25 14.73C62.25 14.73 62.16 14.81 61.87 14.81L60.3 14.81C60.3 14.81 60.05 14.81 59.94 14.72C59.94 14.72 59.82 14.64 59.82 14.37L59.82 8.19L53.4 8.19L53.4 14.37C53.4 14.37 53.4 14.66 53.3 14.73C53.3 14.73 53.19 14.81 52.9 14.81L51.34 14.81C51.34 14.81 51.11 14.81 50.99 14.72C50.99 14.72 50.86 14.64 50.86 14.37L50.86 0.54C50.86 0.54 50.86 0.26 50.99 0.18C50.99 0.18 51.11 0.09 51.34 0.09L52.9 0.09Z" fill="#000000" fill-opacity="1.000000" fill-rule="nonzero"/>
	<path id="Vector" d="M46.61 0.09C46.61 0.09 46.84 0.09 46.91 0.18C46.91 0.18 46.98 0.26 46.98 0.49L46.98 1.95C46.98 1.95 46.98 2.16 46.91 2.24C46.91 2.24 46.84 2.33 46.61 2.33L42.69 2.33L42.69 14.37C42.69 14.37 42.69 14.66 42.6 14.73C42.6 14.73 42.5 14.81 42.22 14.81L40.6 14.81C40.6 14.81 40.35 14.81 40.24 14.72C40.24 14.72 40.13 14.64 40.13 14.37L40.13 2.33L36.29 2.33C36.29 2.33 36.06 2.33 36 2.24C36 2.24 35.93 2.16 35.93 1.95L35.93 0.49C35.93 0.49 35.93 0.26 36 0.18C36 0.18 36.06 0.09 36.29 0.09L46.61 0.09Z" fill="#000000" fill-opacity="1.000000" fill-rule="nonzero"/>
	<path id="Vector" d="M20.46 0.01C24.49 0.01 27.76 3.33 27.76 7.43C27.76 11.54 24.49 14.86 20.46 14.86L4.37 14.86C3.8 14.86 3.33 14.39 3.33 13.8C3.33 13.22 3.8 12.74 4.37 12.74L8.12 12.74C8.69 12.74 9.16 12.27 9.16 11.68C9.16 11.1 8.69 10.62 8.12 10.62L7.29 10.62C6.71 10.62 6.24 10.15 6.24 9.56C6.24 8.98 6.71 8.5 7.29 8.5L9.79 8.5C10.36 8.5 10.81 8.02 10.83 7.44C10.83 6.86 10.36 6.38 9.79 6.38L1.04 6.38C0.46 6.38 0 5.91 0 5.32C0 4.74 0.46 4.26 1.04 4.26L7.49 4.26C8.07 4.26 8.52 3.78 8.53 3.2C8.53 2.62 8.07 2.14 7.49 2.14L6.04 2.14C5.46 2.14 5 1.67 5 1.08C5 0.5 5.46 0 6.04 0L20.46 0.01ZM19.29 2.48C17.05 2.48 15.24 4.33 15.24 6.61L15.24 8.26C15.24 10.54 17.05 12.38 19.29 12.38C21.53 12.38 23.35 10.54 23.35 8.26L23.35 6.61C23.35 4.33 21.53 2.48 19.29 2.48ZM20.68 6.38C21.22 6.38 21.66 6.83 21.66 7.38L21.66 7.51C21.66 8.06 21.22 8.5 20.68 8.5L17.63 8.5C17.09 8.5 16.66 8.06 16.66 7.51L16.66 7.38C16.66 6.83 17.09 6.38 17.63 6.38L20.68 6.38Z" fill="#000000" fill-opacity="1.000000" fill-rule="nonzero"/>
	<path id="Vector" d="M76.94 0.08C76.94 0.08 77.21 0.08 77.28 0.2C77.28 0.2 77.35 0.31 77.35 0.56L77.35 1.89C77.35 1.89 77.35 2.16 77.28 2.26C77.28 2.26 77.21 2.35 76.94 2.35L71.45 2.35C71.45 2.35 70.67 2.35 70.35 2.71C70.35 2.71 70.03 3.07 70.03 3.74L70.03 5.94L76.26 5.94C76.26 5.94 76.53 5.94 76.6 6.05C76.6 6.05 76.67 6.15 76.67 6.45L76.67 7.6C76.67 7.6 76.67 7.85 76.6 7.97C76.6 7.97 76.53 8.08 76.26 8.08L70.03 8.08L70.03 11.15C70.03 11.15 70.03 11.83 70.37 12.17C70.37 12.17 70.71 12.52 71.45 12.52L77.07 12.52C77.07 12.52 77.35 12.52 77.43 12.63C77.43 12.63 77.5 12.73 77.5 13.02L77.5 14.32C77.5 14.32 77.5 14.56 77.42 14.68C77.42 14.68 77.33 14.81 77.07 14.81L71.18 14.81C71.18 14.81 70.09 14.81 69.38 14.49C69.38 14.49 68.68 14.18 68.26 13.65C68.26 13.65 67.83 13.13 67.67 12.45C67.67 12.45 67.5 11.78 67.5 11.05L67.5 3.86C67.5 3.86 67.5 3.13 67.7 2.44C67.7 2.44 67.89 1.76 68.34 1.24C68.34 1.24 68.78 0.71 69.49 0.39C69.49 0.39 70.19 0.08 71.18 0.08L76.94 0.08Z" fill="#000000" fill-opacity="1.000000" fill-rule="nonzero"/>
	<path id="Vector" d="M84.21 0.09C84.21 0.09 84.49 0.09 84.6 0.17C84.6 0.17 84.7 0.24 84.7 0.54L84.7 14.37C84.7 14.37 84.7 14.66 84.6 14.73C84.6 14.73 84.49 14.81 84.21 14.81L82.64 14.81C82.64 14.81 82.39 14.81 82.28 14.72C82.28 14.72 82.16 14.64 82.16 14.37L82.16 0.54C82.16 0.54 82.16 0.26 82.28 0.18C82.28 0.18 82.39 0.09 82.64 0.09L84.21 0.09Z" fill="#000000" fill-opacity="1.000000" fill-rule="nonzero"/>
</svg>
