<svg width="129.000000" height="15.000000" viewBox="0 0 129 15" fill="none" xmlns="http://www.w3.org/2000/svg" xmlns:xlink="http://www.w3.org/1999/xlink">
	<desc>
			Created with Pixso.
	</desc>
	<defs/>
	<path id="Vector" d="M0.91 4.05L-0.22 4.05C-0.61 4.05 -0.83 3.9 -0.83 3.5C-0.83 3.14 -0.61 2.96 -0.22 2.96L0.91 2.96L0.91 1.94C0.91 0.16 1.8 -0.75 3.54 -0.75C4.22 -0.75 4.82 -0.61 5.32 -0.35C5.92 0.05 6.21 0.6 6.21 1.25C6.21 1.72 6.06 1.9 5.71 1.9C5.46 1.9 5.25 1.76 5.18 1.5C5.03 1.03 4.89 0.74 4.78 0.63C4.57 0.38 4.15 0.23 3.54 0.23C2.44 0.23 1.98 0.78 1.98 1.83L1.98 2.85L4.04 2.85C4.5 2.85 4.71 3 4.71 3.39C4.71 3.76 4.46 3.94 4.04 3.94L1.98 3.94L1.98 10.67C1.98 11.07 1.84 11.29 1.48 11.29C1.13 11.29 0.98 11.07 0.98 10.67L0.91 4.05ZM10.11 10.2L10.11 4.09L8.59 4.09C8.16 4.09 7.95 3.94 7.95 3.54C7.95 3.18 8.16 3 8.59 3L10.61 3C10.97 3 11.14 3.29 11.14 3.9C11.78 3.21 12.42 2.85 13.17 2.85C13.77 2.85 14.2 3 14.55 3.39C14.91 3.8 15.05 4.27 15.05 4.85C15.05 5.25 14.91 5.47 14.55 5.47C14.34 5.47 14.2 5.32 14.09 5.07C13.95 4.56 13.84 4.3 13.84 4.27C13.7 4.01 13.38 3.87 13.06 3.87C12.67 3.87 12.28 4.01 11.96 4.34C11.75 4.49 11.46 4.81 11.11 5.29L11.11 10.2L13.03 10.2C13.49 10.2 13.66 10.34 13.66 10.7C13.66 11.07 13.45 11.25 13.03 11.25L8.59 11.25C8.12 11.25 7.95 11.1 7.95 10.7C7.95 10.34 8.16 10.16 8.59 10.16L10.15 10.16L10.11 10.2ZM17.82 7.29L17.82 8.45C17.82 9.72 18.67 10.3 20.38 10.3C21.02 10.3 21.51 10.27 21.9 10.09C22.12 10.05 22.44 9.83 22.93 9.47C23.22 9.18 23.47 9.03 23.57 9.03C23.86 9.03 24.04 9.18 24.04 9.47C24.04 9.76 23.82 10.12 23.4 10.49C22.72 11.03 21.66 11.36 20.34 11.36C17.96 11.36 16.79 10.41 16.79 8.41L16.79 5.54C16.79 4.89 17.04 4.27 17.54 3.83C18.18 3.18 19.17 2.89 20.45 2.89C22.76 2.89 23.89 4.09 23.89 6.49C23.89 7.1 23.65 7.36 23.25 7.36L17.82 7.29ZM17.82 6.23L22.9 6.23C22.9 4.67 22.05 3.87 20.34 3.87C19.7 3.87 19.17 4.01 18.6 4.34C18.1 4.74 17.82 5.14 17.82 5.65L17.82 6.23ZM26.74 7.29L26.74 8.45C26.74 9.72 27.59 10.3 29.29 10.3C29.93 10.3 30.43 10.27 30.82 10.09C31.03 10.05 31.35 9.83 31.85 9.47C32.13 9.18 32.38 9.03 32.49 9.03C32.77 9.03 32.95 9.18 32.95 9.47C32.95 9.76 32.74 10.12 32.31 10.49C31.64 11.03 30.57 11.36 29.26 11.36C26.88 11.36 25.71 10.41 25.71 8.41L25.71 5.54C25.71 4.89 25.95 4.27 26.45 3.83C27.09 3.18 28.09 2.89 29.36 2.89C31.67 2.89 32.81 4.09 32.81 6.49C32.81 7.1 32.56 7.36 32.17 7.36L26.74 7.29ZM26.74 6.23L31.81 6.23C31.81 4.67 30.96 3.87 29.26 3.87C28.62 3.87 28.09 4.01 27.52 4.34C26.98 4.74 26.74 5.14 26.74 5.65L26.74 6.23ZM34.69 8.01L34.69 3.47C34.69 1.03 35.93 -0.13 38.39 -0.13C39.38 -0.13 40.16 0.12 40.8 0.52C41.48 1.07 41.83 1.83 41.83 2.81C41.83 3.29 41.69 3.47 41.3 3.47C41.05 3.47 40.84 3.25 40.77 2.81C40.73 2.45 40.55 2.12 40.37 1.8C40.09 1.18 39.38 0.92 38.31 0.92C37.43 0.92 36.75 1.18 36.33 1.61C35.9 2.05 35.79 2.74 35.79 3.69L35.79 7.47C35.79 8.49 36.01 9.18 36.4 9.58C36.86 10.05 37.5 10.34 38.39 10.34C39.77 10.34 40.55 9.83 40.77 8.89C40.87 8.49 40.87 8.34 40.87 8.27C40.98 8.05 41.12 7.98 41.33 7.98C41.69 7.98 41.87 8.23 41.87 8.63C41.87 9.54 41.48 10.23 40.77 10.81C40.16 11.21 39.42 11.43 38.46 11.43C37.32 11.43 36.43 11.18 35.79 10.63C35.05 10.01 34.69 9.1 34.69 8.01ZM43.47 8.67L43.47 5.65C43.47 3.8 44.64 2.89 47.02 2.89C49.4 2.89 50.57 3.8 50.57 5.65L50.57 8.67C50.57 10.52 49.4 11.43 47.05 11.43C44.67 11.39 43.47 10.49 43.47 8.67ZM49.54 8.67L49.54 5.65C49.54 4.49 48.69 3.94 46.98 3.94C45.35 3.94 44.46 4.56 44.46 5.65L44.46 8.67C44.46 9.83 45.31 10.38 47.02 10.38C48.76 10.34 49.54 9.76 49.54 8.67ZM58.38 10.38C57.89 10.78 57.5 11 57.1 11.14C56.71 11.29 56.22 11.39 55.68 11.39C54.76 11.39 53.94 11.18 53.37 10.78C52.7 10.3 52.34 9.61 52.34 8.67L52.34 5.54C52.34 4.63 52.7 3.94 53.34 3.47C53.87 3.07 54.69 2.85 55.58 2.85C56.18 2.85 56.68 2.89 57.07 3.07C57.46 3.21 57.92 3.47 58.35 3.87L58.35 0.09C58.35 -0.42 58.49 -0.68 58.84 -0.68C59.2 -0.68 59.38 -0.42 59.38 0.09L59.38 10.85C59.38 11.25 59.24 11.39 58.88 11.39C58.67 11.39 58.53 11.29 58.49 11.03C58.42 10.89 58.38 10.67 58.38 10.38ZM58.31 9.18L58.31 4.92C57.81 4.52 57.42 4.27 57.07 4.16C56.61 4.01 56.18 3.9 55.68 3.9C55.04 3.9 54.51 4.01 54.12 4.3C53.62 4.6 53.34 5.1 53.34 5.69L53.34 8.63C53.34 9.25 53.59 9.69 54.12 10.05C54.58 10.3 55.04 10.45 55.75 10.45C56.29 10.45 56.78 10.34 57.18 10.2C57.53 9.87 57.92 9.58 58.31 9.18ZM62.25 7.29L62.25 8.45C62.25 9.72 63.11 10.3 64.81 10.3C65.45 10.3 65.95 10.27 66.34 10.09C66.55 10.05 66.87 9.83 67.37 9.47C67.65 9.18 67.9 9.03 68.01 9.03C68.29 9.03 68.47 9.18 68.47 9.47C68.47 9.76 68.26 10.12 67.83 10.49C67.16 11.03 66.09 11.36 64.78 11.36C62.4 11.36 61.22 10.41 61.22 8.41L61.22 5.54C61.22 4.89 61.47 4.27 61.97 3.83C62.61 3.18 63.6 2.89 64.88 2.89C67.19 2.89 68.33 4.09 68.33 6.49C68.33 7.1 68.08 7.36 67.69 7.36L62.25 7.29ZM62.25 6.23L67.33 6.23C67.33 4.67 66.48 3.87 64.78 3.87C64.14 3.87 63.6 4.01 63.04 4.34C62.5 4.74 62.25 5.14 62.25 5.65L62.25 6.23ZM70.21 8.01L70.21 3.47C70.21 1.03 71.45 -0.13 73.9 -0.13C74.9 -0.13 75.68 0.12 76.32 0.52C77 1.07 77.35 1.83 77.35 2.81C77.35 3.29 77.21 3.47 76.82 3.47C76.57 3.47 76.36 3.25 76.28 2.81C76.25 2.45 76.07 2.12 75.89 1.8C75.61 1.18 74.9 0.92 73.83 0.92C72.95 0.92 72.27 1.18 71.84 1.61C71.45 2.09 71.31 2.74 71.31 3.69L71.31 7.47C71.31 8.49 71.53 9.18 71.92 9.58C72.34 10.05 73.02 10.34 73.9 10.34C75.29 10.34 76.07 9.83 76.28 8.89C76.39 8.49 76.39 8.34 76.39 8.27C76.5 8.05 76.64 7.98 76.82 7.98C77.17 7.98 77.35 8.23 77.35 8.63C77.35 9.54 76.96 10.23 76.25 10.81C75.65 11.21 74.9 11.43 73.94 11.43C72.8 11.43 71.92 11.18 71.28 10.63C70.57 10.01 70.21 9.1 70.21 8.01ZM84.7 10.38C84.21 10.78 83.81 11.03 83.53 11.14C83.14 11.29 82.68 11.39 82.15 11.39C81.29 11.39 80.58 11.25 80.01 10.85C79.37 10.38 79.09 9.8 79.09 8.92C79.09 8.05 79.45 7.39 80.09 6.89C80.62 6.45 81.36 6.23 82.25 6.23C82.93 6.23 83.74 6.38 84.67 6.74L84.67 5.43C84.67 4.81 84.38 4.38 83.81 4.12C83.42 3.98 82.93 3.87 82.39 3.87C81.04 3.87 80.37 4.27 80.23 5.03C80.19 5.39 80.12 5.58 80.12 5.58C80.01 5.72 79.87 5.83 79.66 5.83C79.27 5.83 79.13 5.61 79.13 5.21C79.13 4.67 79.34 4.16 79.77 3.69C80.26 3.07 81.19 2.81 82.54 2.81C83.57 2.81 84.35 2.96 84.84 3.36C85.45 3.83 85.73 4.52 85.73 5.58L85.73 9.32C85.73 9.76 85.84 10.09 85.98 10.2C85.98 10.2 86.19 10.3 86.48 10.45C86.62 10.56 86.73 10.7 86.73 10.96C86.73 11.25 86.59 11.43 86.27 11.43C86.16 11.43 86.02 11.43 85.8 11.32C85.41 11.18 85.16 11.07 85.13 11.07C84.88 10.89 84.77 10.67 84.7 10.38ZM84.67 9.29L84.67 7.72C83.89 7.47 83.1 7.32 82.43 7.32C80.9 7.32 80.16 7.83 80.16 8.85C80.16 9.39 80.4 9.8 80.83 10.01C81.22 10.23 81.68 10.3 82.22 10.3C82.71 10.3 83.14 10.2 83.53 10.01C83.81 9.94 84.17 9.69 84.67 9.29ZM88.65 3.72C88.89 3.43 89.14 3.18 89.28 3.07C89.53 2.92 89.78 2.81 90.17 2.81C90.71 2.81 91.2 3.1 91.66 3.72C91.95 3.36 92.2 3.1 92.45 3.03C92.69 2.89 93.05 2.81 93.44 2.81C94.68 2.81 95.25 3.43 95.25 4.67L95.25 10.63C95.25 11.14 95.11 11.39 94.72 11.39C94.36 11.39 94.22 11.14 94.22 10.63L94.22 5.03C94.22 4.27 93.94 3.87 93.33 3.87C92.87 3.87 92.45 4.16 92.06 4.74L92.06 10.63C92.06 11.14 91.91 11.39 91.56 11.39C91.2 11.39 91.06 11.14 91.06 10.63L91.06 5.18C91.06 4.3 90.71 3.9 90.07 3.9C89.6 3.9 89.21 4.2 88.82 4.78L88.82 10.7C88.82 11.21 88.68 11.47 88.29 11.47C87.93 11.47 87.79 11.21 87.79 10.7L87.79 3.43C87.79 3.07 87.93 2.89 88.25 2.89C88.4 2.89 88.54 3 88.65 3.18C88.61 3.32 88.65 3.58 88.65 3.72ZM97.88 3.72C98.66 3.1 99.62 2.85 100.65 2.85C102.82 2.85 103.85 3.8 103.85 5.61L103.85 8.63C103.85 9.5 103.56 10.2 102.96 10.7C102.43 11.18 101.68 11.36 100.72 11.36C99.62 11.36 98.7 11.07 97.84 10.45L97.84 13.94C97.84 14.49 97.7 14.74 97.35 14.74C96.99 14.74 96.85 14.49 96.85 13.94L96.85 3.65C96.85 3.1 96.99 2.85 97.28 2.85C97.42 2.85 97.56 2.96 97.67 3.14C97.74 3.36 97.77 3.58 97.88 3.72ZM97.88 9.32C98.63 9.98 99.51 10.34 100.54 10.34C101.18 10.34 101.72 10.23 102.11 9.94C102.6 9.65 102.78 9.18 102.78 8.63L102.78 5.61C102.78 4.96 102.53 4.56 102 4.23C101.61 4.01 101.08 3.94 100.44 3.94C99.83 3.94 99.34 4.05 99.02 4.2C98.66 4.34 98.34 4.67 97.84 5.14L97.84 9.32L97.88 9.32ZM107.36 6.38C107.36 4.05 108.15 1.98 109.67 0.23C110.21 -0.42 110.7 -0.79 111.02 -0.79C111.13 -0.79 111.27 -0.79 111.31 -0.68C111.41 -0.57 111.45 -0.53 111.45 -0.39C111.45 -0.24 111.24 0.05 110.85 0.49C109.21 2.09 108.43 4.09 108.43 6.45C108.43 9.07 109.28 11.25 110.95 12.85C111.31 13.14 111.45 13.47 111.45 13.65C111.45 13.76 111.41 13.9 111.31 13.94C111.2 14.05 111.09 14.09 111.02 14.09C110.63 14.09 110.1 13.61 109.39 12.67C108 11 107.36 8.92 107.36 6.38ZM128.82 7C128.82 9.32 128.04 11.39 126.51 13.14C125.98 13.8 125.48 14.16 125.16 14.16C125.05 14.16 124.91 14.16 124.88 14.05C124.77 13.94 124.73 13.83 124.73 13.76C124.73 13.61 124.95 13.29 125.34 12.96C126.97 11.36 127.75 9.36 127.75 7C127.75 4.38 126.9 2.2 125.23 0.6C124.88 0.3 124.73 -0.02 124.73 -0.2C124.73 -0.31 124.77 -0.46 124.88 -0.5C124.98 -0.61 125.09 -0.64 125.16 -0.64C125.55 -0.64 126.08 -0.17 126.79 0.78C128.14 2.41 128.82 4.52 128.82 7ZM122.96 13.65L113.15 13.65C112.87 13.65 112.55 13.39 112.55 13.03C112.55 12.67 112.8 12.41 113.15 12.41L122.96 12.41C123.24 12.41 123.56 12.67 123.56 13.03C123.53 13.39 123.35 13.65 122.96 13.65ZM116 0.49C116 0.49 116.85 1.1 116.85 2.09C116.85 3.9 114.43 5.94 114.43 7.83C114.43 9.9 115.96 11.21 117.38 11.61C117.59 11.65 117.66 11.39 117.42 11.36C116.81 11.21 116.14 10.41 116.14 9.14C116.14 7.98 117.24 7.54 117.66 6.96C118.13 6.34 118.02 5.65 117.77 5.43C117.52 5.21 117.66 4.92 118.16 5.29C118.62 5.65 119.05 6.23 118.91 6.85C118.69 7.61 118.94 8.05 119.37 8.12C119.76 8.16 120.22 7.98 120.15 7.61C120.12 7.25 119.9 6.85 120.01 6.85C120.29 6.85 120.9 7.54 120.9 8.67C120.9 9.8 120.01 10.6 119.72 10.89C119.58 11.03 119.76 11.29 120.01 11.18C120.12 11.14 120.36 10.96 120.51 10.89C121.18 10.38 122.32 9.32 122.32 7.36C122.32 5.29 121.57 4.38 120.79 3.61C120.04 2.85 119.87 3.07 120.04 3.39C120.68 4.56 120.29 4.92 119.83 4.92C119.3 4.92 119.23 3.61 119.05 2.63C118.55 0.41 116.63 0.05 116.28 0.05C115.89 0.09 115.53 0.27 116 0.49Z" fill="#006400" fill-opacity="1.000000" fill-rule="nonzero"/>
</svg>
