<svg width="95.000000" height="33.000000" viewBox="0 0 95 33" fill="none" xmlns="http://www.w3.org/2000/svg" xmlns:xlink="http://www.w3.org/1999/xlink">
	<desc>
			Created with Pixso.
	</desc>
	<defs/>
	<path id="Vector" d="M5.46 23.56C5.86 24.63 6.42 25.54 7.13 26.3C7.84 27.05 8.68 27.63 9.65 28.04C10.63 28.44 11.68 28.64 12.83 28.64C13.94 28.64 14.98 28.43 15.95 28.01C16.92 27.6 17.77 27.01 18.5 26.25C19.23 25.49 19.79 24.59 20.19 23.54C20.59 22.49 20.79 21.32 20.79 20.02L20.79 0L25.66 0L25.66 32.44L20.84 32.44L20.84 29.43C19.76 30.57 18.48 31.45 17.02 32.07C15.55 32.69 13.97 33 12.27 33C10.54 33 8.93 32.69 7.43 32.09C5.93 31.49 4.63 30.63 3.54 29.52C2.44 28.41 1.58 27.07 0.94 25.51C0.31 23.95 0 22.21 0 20.3L0 0L4.86 0L4.86 20.02C4.86 21.32 5.06 22.5 5.46 23.56ZM34.04 0L34.04 11.81C35.12 10.73 36.37 9.87 37.79 9.24C39.21 8.61 40.76 8.29 42.42 8.29C44.15 8.29 45.77 8.62 47.29 9.26C48.8 9.91 50.11 10.79 51.22 11.91C52.34 13.02 53.22 14.33 53.86 15.85C54.51 17.36 54.84 18.97 54.84 20.67C54.84 22.37 54.51 23.96 53.86 25.46C53.22 26.96 52.34 28.27 51.22 29.38C50.11 30.49 48.8 31.37 47.29 32.02C45.77 32.67 44.15 33 42.42 33C40.76 33 39.2 32.68 37.77 32.04C36.33 31.41 35.07 30.55 33.99 29.47L33.99 32.44L29.36 32.44L29.36 0L34.04 0ZM34.57 23.86C34.99 24.85 35.57 25.72 36.31 26.46C37.05 27.2 37.91 27.79 38.9 28.22C39.89 28.65 40.96 28.87 42.1 28.87C43.21 28.87 44.26 28.65 45.25 28.22C46.24 27.79 47.09 27.2 47.82 26.46C48.55 25.72 49.12 24.85 49.56 23.86C49.99 22.88 50.2 21.81 50.2 20.67C50.2 19.52 49.99 18.45 49.56 17.45C49.12 16.44 48.55 15.57 47.82 14.83C47.09 14.08 46.24 13.51 45.25 13.09C44.26 12.67 43.21 12.46 42.1 12.46C40.99 12.46 39.94 12.67 38.95 13.09C37.96 13.51 37.1 14.08 36.36 14.83C35.61 15.57 35.03 16.44 34.6 17.45C34.16 18.45 33.95 19.52 33.95 20.67C33.95 21.81 34.16 22.88 34.57 23.86ZM57.48 15.89C58.09 14.41 58.94 13.1 60.02 11.98C61.1 10.85 62.39 9.96 63.87 9.31C65.35 8.66 66.96 8.34 68.69 8.34C70.38 8.34 71.96 8.65 73.41 9.27C74.86 9.88 76.11 10.74 77.16 11.84C78.21 12.93 79.03 14.23 79.62 15.73C80.2 17.23 80.5 18.86 80.5 20.62L80.5 22.15L61.27 22.15C61.43 23.11 61.74 24 62.2 24.81C62.66 25.63 63.24 26.34 63.94 26.95C64.63 27.55 65.42 28.02 66.3 28.36C67.18 28.7 68.11 28.87 69.1 28.87C71.91 28.87 74.18 27.71 75.91 25.39L79.29 27.9C78.12 29.47 76.67 30.71 74.94 31.6C73.21 32.5 71.26 32.95 69.1 32.95C67.34 32.95 65.7 32.64 64.17 32.02C62.64 31.4 61.31 30.54 60.19 29.43C59.06 28.31 58.17 27.01 57.52 25.51C56.87 24.01 56.55 22.38 56.55 20.62C56.55 18.95 56.86 17.38 57.48 15.89ZM63.98 14.06C62.67 15.16 61.8 16.62 61.37 18.44L75.77 18.44C75.37 16.62 74.51 15.16 73.2 14.06C71.89 12.96 70.35 12.42 68.59 12.42C66.83 12.42 65.3 12.96 63.98 14.06ZM89.25 14.59C88.26 15.68 87.77 17.14 87.77 19L87.77 32.44L83.09 32.44L83.09 8.8L87.72 8.8L87.72 11.72C88.31 10.76 89.07 10.01 90.02 9.45C90.96 8.89 92.08 8.62 93.37 8.62L94.99 8.62L94.99 12.97L93.05 12.97C91.51 12.97 90.24 13.51 89.25 14.59Z" fill="#010202" fill-opacity="1.000000" fill-rule="nonzero"/>
</svg>
