<svg width="86.000000" height="26.000000" viewBox="0 0 86 26" fill="none" xmlns="http://www.w3.org/2000/svg" xmlns:xlink="http://www.w3.org/1999/xlink">
	<desc>
			Created with Pixso.
	</desc>
	<defs/>
	<path id="path8" d="M53.35 20.33C48.35 24.02 41.11 26 34.87 26C26.12 26 18.25 22.75 12.3 17.35C11.83 16.93 12.25 16.35 12.81 16.68C19.24 20.43 27.18 22.69 35.39 22.69C40.93 22.69 47.02 21.54 52.62 19.16C53.47 18.8 54.18 19.71 53.35 20.33Z" fill="#FF9900" fill-opacity="1.000000" fill-rule="evenodd"/>
	<path id="path10" d="M55.43 17.94C54.79 17.12 51.2 17.56 49.59 17.75C49.1 17.81 49.03 17.38 49.47 17.07C52.33 15.06 57.01 15.64 57.56 16.31C58.11 16.99 57.42 21.71 54.73 23.96C54.32 24.3 53.93 24.12 54.11 23.66C54.71 22.15 56.07 18.77 55.43 17.94Z" fill="#FF9900" fill-opacity="1.000000" fill-rule="evenodd"/>
	<path id="path12" d="M49.71 2.83L49.71 0.87C49.71 0.58 49.93 0.38 50.2 0.38L58.95 0.38C59.23 0.38 59.45 0.58 59.45 0.87L59.45 2.55C59.45 2.83 59.21 3.2 58.79 3.78L54.26 10.28C55.95 10.24 57.72 10.49 59.25 11.35C59.6 11.55 59.69 11.83 59.72 12.11L59.72 14.21C59.72 14.49 59.4 14.83 59.07 14.65C56.38 13.24 52.8 13.08 49.83 14.67C49.53 14.83 49.21 14.5 49.21 14.22L49.21 12.23C49.21 11.91 49.21 11.37 49.53 10.88L54.78 3.33L50.21 3.33C49.93 3.33 49.71 3.13 49.71 2.83Z" fill="#000000" fill-opacity="1.000000" fill-rule="evenodd"/>
	<path id="path14" d="M17.79 15.07L15.13 15.07C14.88 15.05 14.67 14.86 14.65 14.61L14.65 0.91C14.65 0.63 14.88 0.42 15.17 0.42L17.65 0.42C17.91 0.43 18.11 0.63 18.13 0.87L18.13 2.66L18.18 2.66C18.83 0.93 20.05 0.13 21.69 0.13C23.35 0.13 24.39 0.93 25.14 2.66C25.78 0.93 27.25 0.13 28.82 0.13C29.93 0.13 31.15 0.59 31.9 1.62C32.74 2.78 32.57 4.45 32.57 5.92L32.56 14.57C32.56 14.84 32.34 15.07 32.05 15.07L29.39 15.07C29.13 15.05 28.91 14.83 28.91 14.57L28.91 7.31C28.91 6.73 28.97 5.29 28.84 4.74C28.64 3.82 28.05 3.56 27.27 3.56C26.63 3.56 25.96 3.99 25.68 4.68C25.41 5.37 25.44 6.53 25.44 7.31L25.44 14.57C25.44 14.84 25.21 15.07 24.92 15.07L22.27 15.07C22 15.05 21.79 14.83 21.79 14.57L21.78 7.31C21.78 5.78 22.03 3.53 20.14 3.53C18.23 3.53 18.3 5.72 18.3 7.31L18.3 14.57C18.3 14.84 18.08 15.07 17.79 15.07L17.79 15.07Z" fill="#000000" fill-opacity="1.000000" fill-rule="evenodd"/>
	<path id="path16" d="M66.99 0.13C70.93 0.13 73.07 3.53 73.07 7.86C73.07 12.04 70.71 15.35 66.99 15.35C63.11 15.35 61 11.95 61 7.71C61 3.44 63.13 0.13 66.99 0.13ZM67.01 2.92C65.05 2.92 64.92 5.61 64.92 7.28C64.92 8.95 64.9 12.53 66.99 12.53C69.05 12.53 69.15 9.64 69.15 7.89C69.15 6.73 69.1 5.35 68.75 4.25C68.45 3.3 67.85 2.92 67.01 2.92Z" fill="#000000" fill-opacity="1.000000" fill-rule="evenodd"/>
	<path id="path18" d="M78.19 15.07L75.54 15.07C75.28 15.05 75.06 14.83 75.06 14.57L75.06 0.86C75.08 0.61 75.3 0.42 75.57 0.42L78.04 0.42C78.27 0.43 78.46 0.58 78.52 0.8L78.52 2.89L78.56 2.89C79.31 1.02 80.35 0.13 82.19 0.13C83.39 0.13 84.55 0.56 85.3 1.74C86 2.84 86 4.68 86 6.01L86 14.63C85.97 14.87 85.74 15.07 85.48 15.07L82.81 15.07C82.57 15.05 82.37 14.87 82.34 14.63L82.34 7.19C82.34 5.69 82.51 3.5 80.68 3.5C80.03 3.5 79.43 3.93 79.14 4.6C78.76 5.43 78.71 6.27 78.71 7.19L78.71 14.57C78.71 14.84 78.48 15.07 78.19 15.07L78.19 15.07Z" fill="#000000" fill-opacity="1.000000" fill-rule="evenodd"/>
	<path id="path28" d="M42.73 8.52C42.73 9.56 42.76 10.43 42.23 11.35C41.81 12.1 41.14 12.56 40.39 12.56C39.37 12.56 38.77 11.78 38.77 10.63C38.77 8.35 40.8 7.94 42.73 7.94L42.73 8.52ZM45.42 15.03C45.24 15.19 44.98 15.2 44.79 15.09C43.9 14.36 43.74 14.01 43.26 13.31C41.8 14.81 40.76 15.25 38.87 15.25C36.63 15.25 34.89 13.87 34.89 11.09C34.89 8.93 36.06 7.45 37.73 6.73C39.17 6.09 41.19 5.98 42.73 5.8L42.73 5.46C42.73 4.82 42.78 4.07 42.41 3.52C42.08 3.03 41.46 2.83 40.91 2.83C39.9 2.83 39 3.35 38.77 4.43C38.73 4.67 38.55 4.91 38.31 4.92L35.73 4.64C35.51 4.59 35.27 4.42 35.33 4.08C35.93 0.94 38.76 0 41.29 0C42.58 0 44.27 0.34 45.3 1.32C46.59 2.54 46.47 4.16 46.47 5.92L46.47 10.08C46.47 11.33 46.98 11.88 47.47 12.55C47.64 12.79 47.68 13.08 47.46 13.26C46.92 13.72 45.95 14.56 45.42 15.04L45.42 15.03L45.42 15.03Z" fill="#000000" fill-opacity="1.000000" fill-rule="evenodd"/>
	<path id="path30" d="M7.84 8.52C7.84 9.56 7.86 10.43 7.34 11.35C6.92 12.1 6.25 12.56 5.5 12.56C4.48 12.56 3.88 11.78 3.88 10.63C3.88 8.35 5.91 7.94 7.84 7.94L7.84 8.52ZM10.52 15.03C10.35 15.19 10.09 15.2 9.89 15.09C9.01 14.36 8.85 14.01 8.37 13.31C6.91 14.81 5.87 15.25 3.98 15.25C1.74 15.25 0 13.87 0 11.09C0 8.93 1.17 7.45 2.83 6.73C4.28 6.09 6.3 5.98 7.84 5.8L7.84 5.46C7.84 4.82 7.89 4.07 7.52 3.52C7.19 3.03 6.57 2.83 6.02 2.83C5.01 2.83 4.1 3.35 3.88 4.43C3.84 4.67 3.66 4.91 3.42 4.92L0.84 4.64C0.62 4.59 0.38 4.42 0.44 4.08C1.04 0.94 3.86 0 6.39 0C7.69 0 9.38 0.34 10.4 1.32C11.7 2.54 11.57 4.16 11.57 5.92L11.57 10.08C11.57 11.33 12.09 11.88 12.58 12.55C12.75 12.79 12.79 13.08 12.57 13.26C12.03 13.72 11.06 14.56 10.53 15.04L10.52 15.03L10.52 15.03Z" fill="#000000" fill-opacity="1.000000" fill-rule="evenodd"/>
</svg>
