<svg width="85.253784" height="27.979004" viewBox="0 0 85.2538 27.979" fill="none" xmlns="http://www.w3.org/2000/svg" xmlns:xlink="http://www.w3.org/1999/xlink">
	<desc>
			Created with Pixso.
	</desc>
	<defs/>
	<path id="Vector" d="M36.48 14.72C36.48 18.74 33.32 21.71 29.44 21.71C25.57 21.71 22.41 18.74 22.41 14.72C22.41 10.67 25.57 7.73 29.44 7.73C33.32 7.73 36.48 10.67 36.48 14.72ZM33.4 14.72C33.4 12.2 31.57 10.48 29.44 10.48C27.32 10.48 25.49 12.2 25.49 14.72C25.49 17.21 27.32 18.96 29.44 18.96C31.57 18.96 33.4 17.21 33.4 14.72Z" fill="#EA4335" fill-opacity="1.000000" fill-rule="nonzero"/>
	<path id="Vector" d="M51.66 14.72C51.66 18.74 48.5 21.71 44.62 21.71C40.74 21.71 37.59 18.74 37.59 14.72C37.59 10.67 40.74 7.73 44.62 7.73C48.5 7.73 51.66 10.67 51.66 14.72ZM48.58 14.72C48.58 12.2 46.74 10.48 44.62 10.48C42.5 10.48 40.66 12.2 40.66 14.72C40.66 17.21 42.5 18.96 44.62 18.96C46.74 18.96 48.58 17.21 48.58 14.72Z" fill="#FBBC05" fill-opacity="1.000000" fill-rule="nonzero"/>
	<path id="Vector" d="M66.2 8.15L66.2 20.7C66.2 25.87 63.14 27.97 59.53 27.97C56.14 27.97 54.09 25.71 53.32 23.85L56 22.74C56.48 23.88 57.65 25.22 59.53 25.22C61.84 25.22 63.27 23.8 63.27 21.12L63.27 20.12L63.17 20.12C62.48 20.97 61.15 21.71 59.47 21.71C55.97 21.71 52.76 18.66 52.76 14.74C52.76 10.8 55.97 7.73 59.47 7.73C61.15 7.73 62.47 8.47 63.17 9.29L63.27 9.29L63.27 8.15L66.2 8.15L66.2 8.15ZM63.49 14.74C63.49 12.28 61.85 10.48 59.75 10.48C57.62 10.48 55.84 12.28 55.84 14.74C55.84 17.18 57.62 18.96 59.75 18.96C61.85 18.96 63.49 17.18 63.49 14.74Z" fill="#4285F4" fill-opacity="1.000000" fill-rule="nonzero"/>
	<path id="Vector" d="M82.73 17.02L85.12 18.61C84.34 19.75 82.49 21.71 79.27 21.71C75.29 21.71 72.31 18.64 72.31 14.72C72.31 10.56 75.31 7.72 78.93 7.72C82.57 7.72 84.35 10.61 84.93 12.17L85.25 12.97L75.87 16.84C76.59 18.24 77.71 18.96 79.27 18.96C80.84 18.96 81.93 18.19 82.73 17.02ZM75.37 14.5L81.63 11.91C81.29 11.04 80.25 10.43 79.03 10.43C77.47 10.43 75.29 11.81 75.37 14.5Z" fill="#EA4335" fill-opacity="1.000000" fill-rule="nonzero"/>
	<path id="Vector" d="M11.04 12.9L11.04 9.93L21.07 9.93C21.16 10.45 21.21 11.06 21.21 11.72C21.21 13.95 20.6 16.7 18.64 18.66C16.72 20.65 14.28 21.71 11.04 21.71C5.04 21.71 0 16.83 0 10.85C0 4.87 5.04 0 11.04 0C14.36 0 16.73 1.29 18.5 2.99L16.4 5.08C15.13 3.89 13.4 2.96 11.04 2.96C6.66 2.96 3.23 6.48 3.23 10.85C3.23 15.22 6.66 18.74 11.04 18.74C13.88 18.74 15.5 17.6 16.54 16.57C17.38 15.73 17.93 14.53 18.15 12.9L11.04 12.9Z" fill="#4285F4" fill-opacity="1.000000" fill-rule="nonzero"/>
</svg>



